<svg width="788" height="774" viewBox="0 0 788 774" fill="none" xmlns="http://www.w3.org/2000/svg">
<g clip-path="url(#clip0_517_4289)">
<g opacity="0.6">
<path opacity="0.2" d="M81.6182 398.615C78.4614 321.933 71.3867 271.897 124.484 219.212C181.175 162.961 179.353 100.661 269.048 98.7282C442.751 94.9849 678.338 246.593 684.865 405.149C688.381 490.548 578.926 551.209 514.928 605.223C460.106 651.493 457.52 697.392 375.737 699.155C198.482 702.975 88.1454 557.17 81.6182 398.615Z" fill="url(#paint0_radial_517_4289)"/>
<path d="M406.734 705.838C316.298 702.882 235.332 663.864 176.506 603.627C113.698 539.313 76.1289 450.811 79.2224 356.188C85.2133 172.942 241.879 22.5636 428.872 28.6769C529.589 31.9696 594.429 152.213 654.168 224.039C705.341 285.567 759.205 292.05 756.384 378.327C750.271 565.32 593.727 711.952 406.734 705.838Z" fill="white"/>
<path opacity="0.2" d="M423.672 709.223C333.236 706.267 252.269 667.248 193.443 607.012C130.635 542.698 93.0664 454.196 96.1599 359.573C102.151 176.326 258.817 25.9483 445.81 32.0617C546.526 35.3544 611.367 155.598 671.105 227.424C722.279 288.952 776.142 295.435 773.321 381.712C767.208 568.705 610.664 715.337 423.672 709.223Z" fill="url(#paint1_radial_517_4289)"/>
<path opacity="0.2" d="M362.146 687.69C271.705 684.915 190.66 646.06 131.714 585.942C68.7764 521.754 31.03 433.328 33.9335 338.699C39.5563 155.44 195.92 4.74787 382.925 10.4857C483.648 13.5762 548.73 133.689 608.612 205.395C659.909 266.82 713.785 273.195 711.138 359.477C705.4 546.482 549.151 693.428 362.146 687.69Z" fill="url(#paint2_radial_517_4289)"/>
<path opacity="0.2" d="M440.874 631.414C364.183 634.331 314.223 641.246 260.624 588.014C203.396 531.179 141.075 532.807 137.666 443.156C131.064 269.538 278.921 34.554 437.496 28.5239C522.906 25.276 585.415 134.858 640.525 198.989C687.733 253.924 733.711 256.652 736.82 338.395C743.557 515.562 599.449 625.384 440.874 631.414Z" fill="url(#paint3_radial_517_4289)"/>
<path opacity="0.2" d="M725.351 397.019C725.351 487.503 686.257 467.759 627.975 528.522C565.747 593.398 481.263 735.781 386.59 735.781C203.245 735.781 47.8281 584.112 47.8281 397.019C47.8281 296.249 165.889 227.514 235.724 165.461C295.547 112.304 300.267 58.2578 386.59 58.2578C573.683 58.2578 725.351 209.927 725.351 397.019Z" fill="url(#paint4_radial_517_4289)"/>
<path opacity="0.2" d="M566.891 682.575C507.757 751.062 455.814 716.926 384.755 713.784C308.885 710.43 214.21 733.213 163.287 653.402C64.6688 498.838 80.1926 253.02 202.463 111.409C268.319 35.1361 376.742 82.6383 454.859 94.5424C521.776 104.74 559.636 67.8112 606.067 140.583C706.701 298.306 689.161 540.964 566.891 682.575Z" fill="url(#paint5_radial_517_4289)"/>
<path opacity="0.2" d="M680.906 228.567C707.745 314.979 700.462 411.331 667.717 497.983C632.755 590.501 568.768 671.96 486.299 718.457C326.59 808.502 146.219 739.989 90.723 561.316C60.8321 465.081 143.285 341.457 185.711 247.898C222.055 167.754 210.135 113.821 285.33 71.4261C448.304 -20.46 625.41 49.8943 680.906 228.567Z" fill="url(#paint6_radial_517_4289)"/>
<path opacity="0.2" d="M160.924 174.904C200.181 109.243 225.317 145.72 286.28 139.177C351.37 132.192 452.808 86.3425 509.014 147.34C617.862 265.469 644.329 475.664 563.158 611.431C519.439 684.556 419.527 658.368 351.145 658.403C292.567 658.434 266.317 694.612 215.069 638.995C103.995 518.451 79.7537 310.671 160.924 174.904Z" fill="url(#paint7_radial_517_4289)"/>
<path opacity="0.2" d="M469.973 637.081C394.761 640.934 345.721 648.478 293.65 595.7C238.056 539.349 176.944 541.735 174.406 451.798C169.49 277.627 316.551 39.9996 472.066 32.0321C555.829 27.7406 616.128 136.967 669.581 200.666C715.37 255.232 760.421 257.414 762.735 339.418C767.752 517.15 625.489 629.113 469.973 637.081Z" fill="url(#paint8_radial_517_4289)"/>
<path opacity="0.2" d="M467.675 679.324C379.603 700.078 389.854 657.497 317.343 614.705C239.924 569.017 81.9596 519.442 60.2452 427.292C18.193 248.835 130.172 62.7747 312.277 19.8629C410.361 -3.24996 504.342 95.8984 580.759 149.639C646.219 195.675 699.908 187.874 719.707 271.895C762.618 454 649.78 636.412 467.675 679.324Z" fill="url(#paint9_radial_517_4289)"/>
<path opacity="0.2" d="M725.351 317.41C725.351 386.631 686.257 371.526 627.975 418.01C565.747 467.64 481.263 576.563 386.59 576.563C203.245 576.563 47.8281 460.536 47.8281 317.41C47.8281 240.321 165.889 187.739 235.724 140.268C295.547 99.6032 300.267 58.2578 386.59 58.2578C573.683 58.2578 725.351 174.284 725.351 317.41Z" fill="url(#paint10_radial_517_4289)"/>
<path opacity="0.2" d="M609.192 103.85C672.468 146.793 708.361 207.662 716.24 271.544C724.652 339.752 701.129 411.394 644.903 468.322C536.015 578.568 337.65 600.039 206.813 511.246C136.343 463.422 158.392 359.81 156.472 288.368C154.827 227.168 119.835 198.68 171.101 146.774C282.215 34.2747 478.355 15.0566 609.192 103.85Z" fill="url(#paint11_radial_517_4289)"/>
<path opacity="0.2" d="M435.182 725.004C340.723 741.202 354.336 696.855 280.471 646.889C201.605 593.541 37.843 530.832 20.8959 431.999C-11.924 240.599 118.588 51.2036 313.901 17.7128C419.099 -0.325757 511.987 110.618 589.268 172.414C655.469 225.35 712.735 220.603 728.187 310.718C761.678 506.031 630.495 691.514 435.182 725.004Z" fill="url(#paint12_radial_517_4289)"/>
<path opacity="0.2" d="M485.151 123.738C542.977 180.136 576.389 257.345 584.568 336.863C593.301 421.764 573.269 509.298 523.477 576.946C427.049 707.954 248.382 724.471 128.816 607.856C64.4161 545.046 82.5823 417.845 79.6547 329.267C77.1468 253.389 45.0898 216.329 90.4901 154.648C188.889 20.9624 365.585 7.12359 485.151 123.738Z" fill="url(#paint13_radial_517_4289)"/>
<path opacity="0.2" d="M624.693 156.024C699.563 206.835 659.503 236.638 668.825 312.226C678.779 392.93 733.476 519.918 666.947 587.276C538.109 717.721 303.398 743.127 148.589 638.065C65.2076 581.478 91.2962 458.883 89.0244 374.35C87.0784 301.938 45.675 268.23 106.335 206.813C237.807 73.7016 469.884 50.9624 624.693 156.024Z" fill="url(#paint14_radial_517_4289)"/>
<path opacity="0.2" d="M624.942 658.593C556.57 717.86 545.73 675.518 461.415 671.475C371.392 667.159 208.139 696.867 145.76 625.649C24.9579 487.728 37.1622 271.473 178.535 148.928C254.68 82.923 384.406 126.713 477.309 138.601C556.892 148.785 600.841 116.936 657.717 181.872C780.989 322.612 766.315 536.047 624.942 658.593Z" fill="url(#paint15_radial_517_4289)"/>
<path opacity="0.2" d="M608.626 653.978C540.01 712.963 477.952 681.487 393.882 676.9C304.12 672.003 192.619 689.712 130.903 617.919C11.3847 478.884 25.0857 262.159 166.963 140.197C243.379 74.5067 372.463 119.228 465.044 131.735C544.352 142.448 588.413 110.796 644.685 176.256C766.647 318.133 750.502 532.017 608.626 653.978Z" fill="url(#paint16_radial_517_4289)"/>
<path opacity="0.2" d="M151.929 142.528C208.691 72.0619 241.215 108.132 324.721 97.372C413.879 85.8838 554.526 31.8281 628.255 91.2174C771.039 206.231 796.931 421.84 679.566 567.543C616.352 646.02 481.292 625.489 387.979 630.006C308.045 633.876 270.466 673.005 203.24 618.854C57.5375 501.489 34.5648 288.231 151.929 142.528Z" fill="url(#paint17_radial_517_4289)"/>
<path opacity="0.2" d="M662.591 592.508C727.311 529.272 693.576 473.87 689.271 398.012C684.674 317.019 704.844 215.91 627.251 161.665C476.985 56.6162 241.125 73.5628 107.304 204.314C35.2266 274.737 82.8238 390.417 95.675 473.796C106.684 545.221 71.8948 585.696 142.643 635.156C295.981 742.352 528.77 723.258 662.591 592.508Z" fill="url(#paint18_radial_517_4289)"/>
</g>
</g>
<defs>
<radialGradient id="paint0_radial_517_4289" cx="0" cy="0" r="1" gradientUnits="userSpaceOnUse" gradientTransform="translate(383.008 397.635) rotate(-92.3573) scale(301.351 301.293)">
<stop stop-color="#D1BBFD" stop-opacity="0"/>
<stop offset="0.411458" stop-color="#D1BBFD" stop-opacity="0.109375"/>
<stop offset="1" stop-color="#D1BBFD"/>
</radialGradient>
<radialGradient id="paint1_radial_517_4289" cx="0" cy="0" r="1" gradientUnits="userSpaceOnUse" gradientTransform="translate(434.741 370.642) rotate(-178.128) scale(338.762)">
<stop stop-color="#E1F1FE" stop-opacity="0"/>
<stop offset="0.421875" stop-color="#E1F1FE" stop-opacity="0.0989583"/>
<stop offset="1" stop-color="#E1F1FE"/>
</radialGradient>
<radialGradient id="paint2_radial_517_4289" cx="0" cy="0" r="1" gradientUnits="userSpaceOnUse" gradientTransform="translate(372.536 349.088) rotate(-178.243) scale(338.762)">
<stop stop-color="#F3DAFA" stop-opacity="0"/>
<stop offset="0.307292" stop-color="#F3DAFA" stop-opacity="0.0885417"/>
<stop offset="0.848958" stop-color="#F3DAFA"/>
</radialGradient>
<radialGradient id="paint3_radial_517_4289" cx="0" cy="0" r="1" gradientUnits="userSpaceOnUse" gradientTransform="translate(434.939 330.19) rotate(177.822) scale(301.351)">
<stop stop-color="#D1BBFD" stop-opacity="0"/>
<stop offset="0.411458" stop-color="#D1BBFD" stop-opacity="0.109375"/>
<stop offset="1" stop-color="#D1BBFD"/>
</radialGradient>
<radialGradient id="paint4_radial_517_4289" cx="0" cy="0" r="1" gradientUnits="userSpaceOnUse" gradientTransform="translate(386.59 397.019) rotate(90) scale(338.762)">
<stop stop-color="#D8F7F9" stop-opacity="0"/>
<stop offset="0.453125" stop-color="#D8F7F9" stop-opacity="0.0885417"/>
<stop offset="1" stop-color="#D8F7F9"/>
</radialGradient>
<radialGradient id="paint5_radial_517_4289" cx="0" cy="0" r="1" gradientUnits="userSpaceOnUse" gradientTransform="translate(384.677 396.992) rotate(130.808) scale(338.762 324.555)">
<stop stop-color="#C2C5FD" stop-opacity="0"/>
<stop offset="0.510417" stop-color="#C5C8FD" stop-opacity="0.0989583"/>
<stop offset="1" stop-color="#E2E4FA"/>
</radialGradient>
<radialGradient id="paint6_radial_517_4289" cx="0" cy="0" r="1" gradientUnits="userSpaceOnUse" gradientTransform="translate(385.814 394.942) rotate(72.7451) scale(338.762 331.161)">
<stop stop-color="#F3DAFA" stop-opacity="0"/>
<stop offset="0.307292" stop-color="#F3DAFA" stop-opacity="0.0885417"/>
<stop offset="0.848958" stop-color="#F3DAFA"/>
</radialGradient>
<radialGradient id="paint7_radial_517_4289" cx="0" cy="0" r="1" gradientUnits="userSpaceOnUse" gradientTransform="translate(362.041 393.168) rotate(-59.1261) scale(286.412 284.62)">
<stop stop-color="#F3F3FD" stop-opacity="0"/>
<stop offset="0.546875" stop-color="#F3F3FD" stop-opacity="0.0989583"/>
<stop offset="1" stop-color="#F3F3FD"/>
</radialGradient>
<radialGradient id="paint8_radial_517_4289" cx="0" cy="0" r="1" gradientUnits="userSpaceOnUse" gradientTransform="translate(466.855 334.829) rotate(177.067) scale(295.711 302.134)">
<stop stop-color="#D1BBFD" stop-opacity="0"/>
<stop offset="0.411458" stop-color="#D1BBFD" stop-opacity="0.109375"/>
<stop offset="1" stop-color="#D1BBFD"/>
</radialGradient>
<radialGradient id="paint9_radial_517_4289" cx="0" cy="0" r="1" gradientUnits="userSpaceOnUse" gradientTransform="translate(389.976 349.594) rotate(166.741) scale(338.762)">
<stop stop-color="#D8F7F9" stop-opacity="0"/>
<stop offset="0.453125" stop-color="#D8F7F9" stop-opacity="0.0885417"/>
<stop offset="1" stop-color="#D8F7F9"/>
</radialGradient>
<radialGradient id="paint10_radial_517_4289" cx="0" cy="0" r="1" gradientUnits="userSpaceOnUse" gradientTransform="translate(386.59 317.41) rotate(90) scale(259.153 338.762)">
<stop stop-color="#D8F7F9" stop-opacity="0"/>
<stop offset="0.453125" stop-color="#D8F7F9" stop-opacity="0.0885417"/>
<stop offset="1" stop-color="#D8F7F9"/>
</radialGradient>
<radialGradient id="paint11_radial_517_4289" cx="0" cy="0" r="1" gradientUnits="userSpaceOnUse" gradientTransform="translate(408.002 307.548) rotate(34.163) scale(286.304 281.527)">
<stop stop-color="#E1F1FE" stop-opacity="0"/>
<stop offset="0.421875" stop-color="#E1F1FE" stop-opacity="0.0989583"/>
<stop offset="1" stop-color="#E1F1FE"/>
</radialGradient>
<radialGradient id="paint12_radial_517_4289" cx="0" cy="0" r="1" gradientUnits="userSpaceOnUse" gradientTransform="translate(374.542 371.359) rotate(170.27) scale(358.807)">
<stop stop-color="#D8F7F9" stop-opacity="0"/>
<stop offset="0.453125" stop-color="#D8F7F9" stop-opacity="0.0885417"/>
<stop offset="1" stop-color="#D8F7F9"/>
</radialGradient>
<radialGradient id="paint13_radial_517_4289" cx="0" cy="0" r="1" gradientUnits="userSpaceOnUse" gradientTransform="translate(306.984 365.797) rotate(44.284) scale(302.413 297.687)">
<stop stop-color="#F3DAFA" stop-opacity="0"/>
<stop offset="0.307292" stop-color="#F3DAFA" stop-opacity="0.0885417"/>
<stop offset="0.848958" stop-color="#F3DAFA"/>
</radialGradient>
<radialGradient id="paint14_radial_517_4289" cx="0" cy="0" r="1" gradientUnits="userSpaceOnUse" gradientTransform="translate(386.641 397.045) rotate(34.163) scale(338.762 333.108)">
<stop stop-color="#F3F3FD" stop-opacity="0"/>
<stop offset="0.546875" stop-color="#F3F3FD" stop-opacity="0.0989583"/>
<stop offset="1" stop-color="#F3F3FD"/>
</radialGradient>
<radialGradient id="paint15_radial_517_4289" cx="0" cy="0" r="1" gradientUnits="userSpaceOnUse" gradientTransform="translate(401.739 403.76) rotate(139.08) scale(338.762 338.757)">
<stop stop-color="#D8F7F9" stop-opacity="0"/>
<stop offset="0.723958" stop-color="#D8F7F9" stop-opacity="0.0885417"/>
<stop offset="1" stop-color="#D8F7F9"/>
</radialGradient>
<radialGradient id="paint16_radial_517_4289" cx="0" cy="0" r="1" gradientUnits="userSpaceOnUse" gradientTransform="translate(387.794 397.088) rotate(139.317) scale(338.762)">
<stop stop-color="#C2C5FD" stop-opacity="0"/>
<stop offset="0.510417" stop-color="#C5C8FD" stop-opacity="0.0989583"/>
<stop offset="1" stop-color="#E2E4FA"/>
</radialGradient>
<radialGradient id="paint17_radial_517_4289" cx="0" cy="0" r="1" gradientUnits="userSpaceOnUse" gradientTransform="translate(415.748 355.036) rotate(-51.1483) scale(338.762)">
<stop stop-color="#F3F3FD" stop-opacity="0"/>
<stop offset="0.546875" stop-color="#F3F3FD" stop-opacity="0.0989583"/>
<stop offset="1" stop-color="#F3F3FD"/>
</radialGradient>
<radialGradient id="paint18_radial_517_4289" cx="0" cy="0" r="1" gradientUnits="userSpaceOnUse" gradientTransform="translate(384.947 398.411) rotate(-44.3352) scale(338.762 332.863)">
<stop stop-color="#C2C5FD" stop-opacity="0"/>
<stop offset="0.510417" stop-color="#C5C8FD" stop-opacity="0.0989583"/>
<stop offset="1" stop-color="#E2E4FA"/>
</radialGradient>
<clipPath id="clip0_517_4289">
<rect width="788" height="774" fill="white"/>
</clipPath>
</defs>
</svg>
