<svg width="32" height="32" viewBox="0 0 32 32" fill="none" xmlns="http://www.w3.org/2000/svg">
<path d="M27 4H5C2.79086 4 1 5.79086 1 8V24C1 26.2091 2.79086 28 5 28H27C29.2091 28 31 26.2091 31 24V8C31 5.79086 29.2091 4 27 4Z" fill="white"/>
<path d="M1.63672 5.846H30.3607C29.6497 4.738 28.4137 4 26.9987 4H4.99872C3.58472 4 2.34872 4.738 1.63672 5.846Z" fill="#FF0035"/>
<path d="M2.03 7.69141C2.022 7.79441 2 7.89341 2 7.99941V9.53841H31V7.99941C31 7.89441 30.978 7.79541 30.97 7.69141H2.03Z" fill="#FF0035"/>
<path d="M2 11.3867H31V13.2327H2V11.3867Z" fill="#FF0035"/>
<path d="M2 15.0781H31V16.9241H2V15.0781Z" fill="#FF0035"/>
<path d="M1 18.7695H31V20.6155H1V18.7695Z" fill="#FF0035"/>
<path d="M1 23.9999C1 24.1049 1.023 24.2039 1.031 24.3079H30.969C30.977 24.2049 31 24.1059 31 23.9999V22.4609H1V23.9999Z" fill="#FF0035"/>
<path d="M30.3607 26.1562H1.63672C2.34772 27.2643 3.58372 28.0023 4.99872 28.0023H26.9987C28.4127 28.0023 29.6487 27.2643 30.3607 26.1562Z" fill="#FF0035"/>
<path d="M5 4H16V16.923H1V8C1 5.792 2.792 4 5 4Z" fill="#3160DB"/>
<path d="M4.6013 7.46094L5.1933 7.03094H4.4623L4.2363 6.33594L4.0103 7.03094H3.2793L3.8703 7.46094L3.6443 8.15594L4.2363 7.72694L4.8273 8.15594L4.6013 7.46094Z" fill="white"/>
<path d="M7.57981 7.46484L8.17181 7.03484H7.44081L7.21481 6.33984L6.98881 7.03484H6.25781L6.84881 7.46484L6.62281 8.15984L7.21481 7.73084L7.80581 8.15984L7.57981 7.46484Z" fill="white"/>
<path d="M10.5613 7.46094L11.1523 7.03094H10.4213L10.1953 6.33594L9.96928 7.03094H9.23828L9.82928 7.46094L9.60428 8.15594L10.1953 7.72694L10.7863 8.15594L10.5613 7.46094Z" fill="white"/>
<path d="M6.06614 9.28125L6.65814 8.85225H5.92714L5.70114 8.15625L5.47514 8.85225H4.74414L5.33514 9.28125L5.10914 9.97725L5.70114 9.54725L6.29214 9.97725L6.06614 9.28125Z" fill="white"/>
<path d="M9.04566 9.28125L9.63666 8.85225H8.90566L8.67966 8.15625L8.45366 8.85225H7.72266L8.31366 9.28125L8.08866 9.97725L8.67966 9.54725L9.27066 9.97725L9.04566 9.28125Z" fill="white"/>
<path d="M12.0242 9.28125L12.6152 8.85225H11.8842L11.6582 8.15625L11.4322 8.85225H10.7012L11.2932 9.28125L11.0672 9.97725L11.6582 9.54725L12.2502 9.97725L12.0242 9.28125Z" fill="white"/>
<path d="M6.06614 12.9258L6.65814 12.4958H5.92714L5.70114 11.8008L5.47514 12.4958H4.74414L5.33514 12.9258L5.10914 13.6208L5.70114 13.1918L6.29214 13.6208L6.06614 12.9258Z" fill="white"/>
<path d="M9.04566 12.9219L9.63666 12.4919H8.90566L8.67966 11.7969L8.45366 12.4919H7.72266L8.31366 12.9219L8.08866 13.6169L8.67966 13.1879L9.27066 13.6169L9.04566 12.9219Z" fill="white"/>
<path d="M12.0242 12.9219L12.6152 12.4919H11.8842L11.6582 11.7969L11.4322 12.4919H10.7012L11.2932 12.9219L11.0672 13.6169L11.6582 13.1879L12.2502 13.6169L12.0242 12.9219Z" fill="white"/>
<path d="M13.5398 7.46094L14.1308 7.03094H13.3998L13.1738 6.33594L12.9478 7.03094H12.2168L12.8088 7.46094L12.5828 8.15594L13.1738 7.72694L13.7658 8.15594L13.5398 7.46094Z" fill="white"/>
<path d="M4.6013 11.1016L5.1933 10.6716H4.4623L4.2363 9.97656L4.0103 10.6716H3.2793L3.8703 11.1016L3.6443 11.7966L4.2363 11.3666L4.8273 11.7966L4.6013 11.1016Z" fill="white"/>
<path d="M7.57981 11.1016L8.17181 10.6716H7.44081L7.21481 9.97656L6.98881 10.6716H6.25781L6.84881 11.1016L6.62281 11.7966L7.21481 11.3666L7.80581 11.7966L7.57981 11.1016Z" fill="white"/>
<path d="M10.5613 11.1016L11.1523 10.6716H10.4213L10.1953 9.97656L9.96928 10.6716H9.23828L9.82928 11.1016L9.60428 11.7966L10.1953 11.3666L10.7863 11.7966L10.5613 11.1016Z" fill="white"/>
<path d="M13.5378 11.1016L14.1288 10.6716H13.3978L13.1718 9.97656L12.9458 10.6716H12.2148L12.8068 11.1016L12.5808 11.7966L13.1718 11.3666L13.7638 11.7966L13.5378 11.1016Z" fill="white"/>
<path d="M4.6013 14.7422L5.1933 14.3132H4.4623L4.2363 13.6172L4.0103 14.3132H3.2793L3.8703 14.7422L3.6443 15.4382L4.2363 15.0082L4.8273 15.4382L4.6013 14.7422Z" fill="white"/>
<path d="M7.57981 14.7422L8.17181 14.3132H7.44081L7.21481 13.6172L6.98881 14.3132H6.25781L6.84881 14.7422L6.62281 15.4382L7.21481 15.0082L7.80581 15.4382L7.57981 14.7422Z" fill="white"/>
<path d="M10.5613 14.7422L11.1523 14.3132H10.4213L10.1953 13.6172L9.96928 14.3132H9.23828L9.82928 14.7422L9.60428 15.4382L10.1953 15.0082L10.7863 15.4382L10.5613 14.7422Z" fill="white"/>
<path d="M13.5398 14.7422L14.1308 14.3132H13.3998L13.1738 13.6172L12.9478 14.3132H12.2168L12.8088 14.7422L12.5828 15.4382L13.1738 15.0082L13.7658 15.4382L13.5398 14.7422Z" fill="white"/>
</svg>
