<svg width="75" height="75" viewBox="0 0 75 75" fill="none" xmlns="http://www.w3.org/2000/svg">
<g clip-path="url(#clip0_517_4002)">
<path d="M59.8592 21.9345L54.2897 27.504C63.4348 36.6491 63.4348 51.3638 54.2897 60.3713C45.1446 69.5164 30.43 69.5164 21.4224 60.3713C12.2773 51.2262 12.2773 36.5116 21.4224 27.504L35.9308 12.9957L37.9936 10.9329V0L16.1279 21.8657C3.95737 34.0362 3.95737 53.7016 16.1279 65.8721C28.2984 78.0426 47.9638 78.0426 59.928 65.8721C72.0298 53.7016 72.0298 34.1737 59.8592 21.9345Z" fill="#EE4C2C"/>
<path d="M48.926 20.6293C51.1665 20.6293 52.9828 18.813 52.9828 16.5725C52.9828 14.332 51.1665 12.5156 48.926 12.5156C46.6855 12.5156 44.8691 14.332 44.8691 16.5725C44.8691 18.813 46.6855 20.6293 48.926 20.6293Z" fill="#EE4C2C"/>
</g>
<defs>
<clipPath id="clip0_517_4002">
<rect width="75" height="75" fill="white"/>
</clipPath>
</defs>
</svg>
