<svg width="32" height="32" viewBox="0 0 32 32" fill="none" xmlns="http://www.w3.org/2000/svg">
<path d="M1 11H31V21H1V11Z" fill="white"/>
<path d="M5 4H27C29.208 4 31 5.792 31 8V12H1V8C1 5.792 2.792 4 5 4Z" fill="#E06535"/>
<path d="M27 28L5 28C2.792 28 1 26.208 1 24V20L31 20V24C31 26.208 29.208 28 27 28Z" fill="#2C6837"/>
<path d="M16.001 12.293C13.953 12.293 12.293 13.953 12.293 16.001C12.293 18.049 13.953 19.709 16.001 19.709C18.049 19.709 19.709 18.049 19.709 16.001C19.709 13.953 18.049 12.293 16.001 12.293ZM19.042 16.402C19.032 16.478 19.084 16.547 19.159 16.559C19.126 16.745 19.079 16.926 19.016 17.099C18.945 17.071 18.864 17.105 18.835 17.176C18.806 17.247 18.839 17.327 18.908 17.358C18.868 17.443 18.825 17.525 18.778 17.606L17.167 16.537L16.575 16.288C16.588 16.262 16.599 16.235 16.609 16.207L17.204 16.449L19.099 16.832L17.266 16.216L16.63 16.129C16.636 16.101 16.639 16.072 16.641 16.042L17.279 16.122L19.209 16.002L17.279 15.882L16.641 15.962C16.639 15.932 16.636 15.903 16.63 15.875L17.266 15.788L19.099 15.172L17.204 15.555L16.609 15.797C16.6 15.769 16.588 15.742 16.575 15.716L17.167 15.467L18.778 14.398C18.825 14.479 18.868 14.561 18.908 14.646C18.838 14.677 18.805 14.757 18.835 14.828C18.864 14.899 18.945 14.933 19.016 14.905C19.079 15.078 19.127 15.259 19.159 15.445C19.084 15.457 19.032 15.526 19.042 15.602C19.052 15.678 19.12 15.731 19.196 15.723C19.204 15.815 19.209 15.908 19.209 16.002C19.209 16.096 19.204 16.189 19.196 16.281C19.121 16.273 19.052 16.326 19.042 16.402ZM18.458 13.94C18.399 13.988 18.388 14.074 18.435 14.134C18.481 14.194 18.567 14.206 18.629 14.162C18.682 14.238 18.732 14.317 18.778 14.398L17.048 15.259L16.536 15.647C16.52 15.623 16.502 15.6 16.482 15.578L16.99 15.184L18.27 13.734L16.82 15.014L16.426 15.522C16.404 15.503 16.381 15.484 16.357 15.468L16.745 14.956L17.606 13.225C17.687 13.272 17.766 13.322 17.842 13.375C17.797 13.436 17.809 13.522 17.87 13.569C17.931 13.615 18.017 13.605 18.064 13.546C18.135 13.606 18.205 13.669 18.271 13.735C18.337 13.801 18.4 13.87 18.46 13.942L18.458 13.94ZM16.281 12.807C16.273 12.882 16.326 12.951 16.402 12.961C16.478 12.971 16.547 12.919 16.559 12.844C16.745 12.877 16.926 12.924 17.099 12.987C17.071 13.058 17.105 13.139 17.176 13.168C17.247 13.197 17.327 13.164 17.358 13.095C17.443 13.135 17.525 13.178 17.606 13.225L16.537 14.836L16.288 15.428C16.262 15.415 16.235 15.404 16.207 15.394L16.449 14.799L16.832 12.904L16.216 14.737L16.129 15.373C16.101 15.367 16.072 15.364 16.042 15.362L16.122 14.724L16.002 12.794L15.882 14.724L15.962 15.362C15.932 15.364 15.903 15.367 15.875 15.373L15.788 14.737L15.172 12.904L15.555 14.799L15.797 15.394C15.769 15.403 15.742 15.415 15.716 15.428L15.467 14.836L14.398 13.225C14.479 13.178 14.561 13.135 14.646 13.095C14.677 13.165 14.757 13.198 14.828 13.168C14.899 13.139 14.933 13.058 14.905 12.987C15.078 12.924 15.259 12.876 15.445 12.844C15.457 12.919 15.526 12.971 15.602 12.961C15.678 12.951 15.731 12.883 15.723 12.807C15.815 12.799 15.908 12.794 16.002 12.794C16.096 12.794 16.189 12.799 16.281 12.807ZM13.168 17.175C13.139 17.104 13.058 17.07 12.987 17.098C12.924 16.925 12.876 16.744 12.844 16.558C12.919 16.546 12.971 16.477 12.961 16.401C12.951 16.325 12.883 16.272 12.807 16.28C12.799 16.188 12.794 16.095 12.794 16.001C12.794 15.907 12.799 15.814 12.807 15.722C12.882 15.73 12.951 15.677 12.961 15.601C12.971 15.525 12.919 15.456 12.844 15.444C12.877 15.258 12.924 15.077 12.987 14.904C13.058 14.932 13.139 14.898 13.168 14.827C13.197 14.756 13.164 14.676 13.095 14.645C13.135 14.56 13.178 14.478 13.225 14.397L14.836 15.466L15.428 15.715C15.415 15.741 15.404 15.768 15.394 15.796L14.799 15.554L12.904 15.171L14.737 15.787L15.373 15.874C15.367 15.902 15.364 15.931 15.362 15.961L14.724 15.881L12.794 16.001L14.724 16.121L15.362 16.041C15.364 16.071 15.367 16.1 15.373 16.128L14.737 16.215L12.904 16.831L14.799 16.448L15.394 16.206C15.403 16.234 15.415 16.261 15.428 16.287L14.836 16.536L13.225 17.605C13.178 17.524 13.135 17.442 13.095 17.357C13.165 17.326 13.198 17.246 13.168 17.175ZM13.94 13.545C13.988 13.604 14.074 13.615 14.134 13.568C14.194 13.522 14.206 13.436 14.162 13.374C14.238 13.321 14.317 13.27 14.398 13.224L15.259 14.955L15.647 15.467C15.623 15.483 15.6 15.501 15.578 15.521L15.184 15.013L13.734 13.733L15.014 15.183L15.522 15.577C15.503 15.599 15.484 15.622 15.468 15.646L14.956 15.258L13.225 14.397C13.272 14.316 13.322 14.237 13.375 14.161C13.436 14.206 13.522 14.194 13.569 14.133C13.615 14.072 13.605 13.986 13.546 13.939C13.606 13.868 13.669 13.798 13.735 13.732C13.801 13.666 13.87 13.603 13.942 13.543L13.94 13.545ZM13.545 18.063C13.604 18.015 13.615 17.929 13.568 17.869C13.522 17.809 13.436 17.797 13.374 17.841C13.321 17.765 13.27 17.686 13.224 17.605L14.955 16.744L15.467 16.356C15.483 16.38 15.501 16.403 15.521 16.425L15.013 16.819L13.733 18.269L15.183 16.989L15.577 16.481C15.599 16.5 15.622 16.519 15.646 16.535L15.258 17.047L14.397 18.778C14.316 18.731 14.237 18.681 14.161 18.628C14.206 18.567 14.194 18.481 14.133 18.434C14.072 18.388 13.986 18.398 13.939 18.457C13.868 18.397 13.798 18.334 13.732 18.268C13.666 18.202 13.603 18.133 13.543 18.061L13.545 18.063ZM15.722 19.196C15.73 19.121 15.677 19.052 15.601 19.042C15.525 19.032 15.456 19.084 15.444 19.159C15.258 19.126 15.077 19.079 14.904 19.016C14.932 18.945 14.898 18.864 14.827 18.835C14.756 18.806 14.676 18.839 14.645 18.908C14.56 18.868 14.478 18.825 14.397 18.778L15.466 17.167L15.715 16.575C15.741 16.588 15.768 16.599 15.796 16.609L15.554 17.204L15.171 19.099L15.787 17.266L15.874 16.63C15.902 16.636 15.931 16.639 15.961 16.641L15.881 17.279L16.001 19.209L16.121 17.279L16.041 16.641C16.071 16.639 16.1 16.636 16.128 16.63L16.215 17.266L16.831 19.099L16.448 17.204L16.206 16.609C16.234 16.6 16.261 16.588 16.287 16.575L16.536 17.167L17.605 18.778C17.524 18.825 17.442 18.868 17.357 18.908C17.326 18.838 17.246 18.805 17.175 18.835C17.104 18.864 17.07 18.945 17.098 19.016C16.925 19.079 16.744 19.127 16.558 19.159C16.546 19.084 16.477 19.032 16.401 19.042C16.325 19.052 16.272 19.12 16.28 19.196C16.188 19.204 16.095 19.209 16.001 19.209C15.907 19.209 15.814 19.204 15.722 19.196ZM18.063 18.458C18.015 18.399 17.929 18.388 17.869 18.435C17.809 18.481 17.797 18.567 17.841 18.629C17.765 18.682 17.686 18.732 17.605 18.778L16.744 17.048L16.356 16.536C16.38 16.52 16.403 16.502 16.425 16.482L16.819 16.99L18.269 18.27L16.989 16.82L16.481 16.426C16.5 16.404 16.519 16.381 16.535 16.357L17.047 16.745L18.778 17.606C18.731 17.687 18.681 17.766 18.628 17.842C18.567 17.797 18.481 17.809 18.434 17.87C18.388 17.931 18.398 18.017 18.457 18.064C18.397 18.135 18.334 18.205 18.268 18.271C18.202 18.337 18.133 18.4 18.061 18.46L18.063 18.458Z" fill="#2C2C6B"/>
</svg>
