<svg width="73" height="75" viewBox="0 0 73 75" fill="none" xmlns="http://www.w3.org/2000/svg">
<path d="M72.823 16.9374C72.85 17.0372 72.864 17.1401 72.864 17.2435V33.314C72.864 33.7338 72.6394 34.1216 72.2752 34.3305L58.7869 42.0962V57.4886C58.7869 57.9075 58.5643 58.2941 58.2011 58.505L30.0455 74.7132C29.9811 74.7498 29.9108 74.7732 29.8405 74.7981C29.8141 74.8069 29.7892 74.8231 29.7614 74.8304C29.5645 74.8822 29.3577 74.8822 29.1608 74.8304C29.1286 74.8216 29.0993 74.804 29.0686 74.7923C29.0041 74.7689 28.9367 74.7484 28.8752 74.7132L0.725521 58.505C0.36154 58.2959 0.136719 57.9083 0.136719 57.4886V9.2771C0.136719 9.17165 0.151366 9.06912 0.17773 8.96952C0.186518 8.93583 0.207023 8.90507 0.218741 8.87138C0.240711 8.80987 0.261217 8.74689 0.29344 8.68976C0.31541 8.65168 0.347633 8.62092 0.373997 8.58577C0.407685 8.5389 0.438443 8.49057 0.477989 8.44956C0.511677 8.41587 0.555618 8.39097 0.593699 8.36168C0.636175 8.32652 0.674257 8.28844 0.722591 8.26061H0.724056L14.7996 0.156532C15.1623 -0.0521774 15.6087 -0.0521774 15.9714 0.156532L30.047 8.26061H30.0499C30.0968 8.28991 30.1363 8.32652 30.1788 8.36021C30.2169 8.3895 30.2594 8.41587 30.293 8.44809C30.3341 8.49057 30.3633 8.5389 30.3985 8.58577C30.4234 8.62092 30.4571 8.65168 30.4776 8.68976C30.5113 8.74835 30.5303 8.80987 30.5538 8.87138C30.5655 8.90507 30.586 8.93583 30.5948 8.97098C30.6217 9.0708 30.6355 9.17371 30.6358 9.2771V39.3895L42.3649 32.6358V17.242C42.3649 17.1395 42.3796 17.0355 42.406 16.9374C42.4162 16.9022 42.4352 16.8715 42.447 16.8378C42.4704 16.7763 42.4909 16.7133 42.5231 16.6562C42.5451 16.6181 42.5773 16.5873 42.6022 16.5522C42.6374 16.5053 42.6667 16.457 42.7077 16.416C42.7414 16.3823 42.7838 16.3574 42.8219 16.3281C42.8659 16.2929 42.9039 16.2548 42.9508 16.227H42.9523L57.0293 8.12293C57.392 7.91392 57.8385 7.91392 58.2011 8.12293L72.2767 16.227C72.3265 16.2563 72.3645 16.2929 72.4085 16.3266C72.4451 16.3559 72.4876 16.3823 72.5213 16.4145C72.5623 16.457 72.5916 16.5053 72.6267 16.5522C72.6531 16.5873 72.6853 16.6181 72.7058 16.6562C72.7395 16.7133 72.7585 16.7763 72.782 16.8378C72.7952 16.8715 72.8142 16.9022 72.823 16.9374ZM70.5176 32.6358V19.2721L65.5919 22.1077L58.7869 26.0257V39.3895L70.519 32.6358H70.5176ZM56.442 56.8104V43.4379L49.7484 47.2607L30.6343 58.1696V71.6681L56.442 56.8104ZM2.48314 11.3057V56.8104L28.2879 71.6667V58.1711L14.807 50.5416L14.8026 50.5386L14.7967 50.5357C14.7513 50.5093 14.7132 50.4713 14.6708 50.439C14.6341 50.4097 14.5917 50.3863 14.5594 50.3541L14.5565 50.3497C14.5184 50.3131 14.4921 50.2677 14.4598 50.2267C14.4305 50.1871 14.3954 50.1534 14.372 50.1124L14.3705 50.108C14.3441 50.0641 14.328 50.0114 14.309 49.9616C14.2899 49.9176 14.265 49.8766 14.2533 49.8297V49.8283C14.2387 49.7726 14.2357 49.714 14.2299 49.6569C14.224 49.613 14.2123 49.569 14.2123 49.5251V49.5221V18.0593L7.40886 14.1398L2.48314 11.3071V11.3057ZM15.387 2.52639L3.65928 9.2771L15.3841 16.0278L27.1103 9.27564L15.3841 2.52639H15.387ZM21.4859 44.6565L28.2894 40.7399V11.3057L23.3636 14.1413L16.5587 18.0593V47.4936L21.4859 44.6565ZM57.6152 10.4928L45.889 17.2435L57.6152 23.9942L69.34 17.242L57.6152 10.4928ZM56.442 26.0257L49.6371 22.1077L44.7114 19.2721V32.6358L51.5148 36.5524L56.442 39.3895V26.0257ZM29.4596 56.141L46.6594 46.3218L55.2571 41.4151L43.5396 34.6688L30.0484 42.436L17.7524 49.5148L29.4596 56.141Z" fill="#FF2D20"/>
</svg>
