<svg width="50" height="60" viewBox="0 0 50 60" fill="none" xmlns="http://www.w3.org/2000/svg">
<path d="M42.4612 17.5476L38.0056 22.0032C45.3216 29.3193 45.3216 41.091 38.0056 48.297C30.6895 55.6131 18.9178 55.6131 11.7118 48.297C4.39569 40.981 4.39569 29.2092 11.7118 22.0032L23.3184 10.3965L24.9687 8.74628V0L7.47614 17.4926C-2.26028 27.229 -2.26028 42.9613 7.47614 52.6977C17.2126 62.4341 32.9448 62.4341 42.5162 52.6977C52.1976 42.9613 52.1976 27.339 42.4612 17.5476Z" fill="white"/>
<path d="M33.7142 16.5046C35.5066 16.5046 36.9597 15.0516 36.9597 13.2592C36.9597 11.4667 35.5066 10.0137 33.7142 10.0137C31.9218 10.0137 30.4688 11.4667 30.4688 13.2592C30.4688 15.0516 31.9218 16.5046 33.7142 16.5046Z" fill="white"/>
</svg>
