<svg width="60" height="60" viewBox="0 0 60 60" fill="none" xmlns="http://www.w3.org/2000/svg">
<path d="M59.0572 13.5499C59.0788 13.6298 59.09 13.7121 59.09 13.7948V26.6512C59.09 26.9871 58.9103 27.2973 58.619 27.4644L47.8284 33.677V45.9908C47.8284 46.326 47.6503 46.6353 47.3597 46.804L24.8352 59.7706C24.7837 59.7999 24.7274 59.8186 24.6712 59.8385C24.6501 59.8456 24.6302 59.8584 24.6079 59.8643C24.4505 59.9058 24.285 59.9058 24.1275 59.8643C24.1017 59.8573 24.0783 59.8432 24.0537 59.8338C24.0021 59.8151 23.9482 59.7987 23.899 59.7706L1.37924 46.804C1.08806 46.6368 0.908203 46.3267 0.908203 45.9908V7.42168C0.908203 7.33732 0.919921 7.25529 0.941012 7.17561C0.948042 7.14866 0.964447 7.12406 0.973821 7.09711C0.991397 7.04789 1.0078 6.99751 1.03358 6.95181C1.05116 6.92135 1.07693 6.89674 1.09803 6.86862C1.12498 6.83112 1.14958 6.79245 1.18122 6.75965C1.20817 6.7327 1.24332 6.71278 1.27379 6.68934C1.30777 6.66122 1.33823 6.63075 1.3769 6.60849H1.37807L12.6385 0.125226C12.9287 -0.0417419 13.2858 -0.0417419 13.5759 0.125226L24.8364 6.60849H24.8387C24.8762 6.63193 24.9079 6.66122 24.9419 6.68817C24.9723 6.7116 25.0063 6.7327 25.0333 6.75847C25.0661 6.79245 25.0895 6.83112 25.1176 6.86862C25.1375 6.89674 25.1645 6.92135 25.1809 6.95181C25.2079 6.99868 25.2231 7.04789 25.2418 7.09711C25.2512 7.12406 25.2676 7.14866 25.2746 7.17679C25.2962 7.25664 25.3072 7.33897 25.3074 7.42168V31.5116L34.6908 26.1087V13.7936C34.6908 13.7116 34.7025 13.6284 34.7236 13.5499C34.7318 13.5218 34.747 13.4972 34.7564 13.4702C34.7751 13.421 34.7916 13.3706 34.8173 13.3249C34.8349 13.2945 34.8607 13.2699 34.8806 13.2417C34.9087 13.2042 34.9322 13.1656 34.965 13.1328C34.9919 13.1058 35.0259 13.0859 35.0564 13.0625C35.0915 13.0343 35.122 13.0039 35.1595 12.9816H35.1607L46.4223 6.49835C46.7124 6.33114 47.0696 6.33114 47.3597 6.49835L58.6202 12.9816C58.66 13.005 58.6905 13.0343 58.7256 13.0613C58.7549 13.0847 58.7889 13.1058 58.8158 13.1316C58.8486 13.1656 58.8721 13.2042 58.9002 13.2417C58.9213 13.2699 58.9471 13.2945 58.9635 13.3249C58.9904 13.3706 59.0057 13.421 59.0244 13.4702C59.035 13.4972 59.0502 13.5218 59.0572 13.5499ZM57.2129 26.1087V15.4177L53.2723 17.6862L47.8284 20.8206V31.5116L57.2141 26.1087H57.2129ZM45.9524 45.4483V34.7503L40.5975 37.8085L25.3063 46.5357V57.3345L45.9524 45.4483ZM2.78534 9.04455V45.4483L23.4291 57.3333V46.5369L12.6444 40.4333L12.6409 40.4309L12.6362 40.4286C12.5999 40.4075 12.5694 40.377 12.5354 40.3512C12.5061 40.3278 12.4722 40.309 12.4464 40.2833L12.444 40.2798C12.4136 40.2505 12.3925 40.2141 12.3667 40.1813C12.3433 40.1497 12.3151 40.1227 12.2964 40.0899L12.2952 40.0864C12.2741 40.0513 12.2612 40.0091 12.246 39.9692C12.2308 39.9341 12.2109 39.9013 12.2015 39.8638V39.8626C12.1898 39.8181 12.1874 39.7712 12.1827 39.7255C12.178 39.6904 12.1687 39.6552 12.1687 39.6201V39.6177V14.4475L6.72592 11.3119L2.78534 9.04572V9.04455ZM13.1084 2.02111L3.72625 7.42168L13.1061 12.8223L22.4871 7.42051L13.1061 2.02111H13.1084ZM17.9876 35.7252L23.4303 32.5919V9.04455L19.4897 11.313L14.0458 14.4475V37.9949L17.9876 35.7252ZM46.891 8.39423L37.51 13.7948L46.891 19.1954L56.2708 13.7936L46.891 8.39423ZM45.9524 20.8206L40.5085 17.6862L36.5679 15.4177V26.1087L42.0107 29.2419L45.9524 31.5116V20.8206ZM24.3665 44.9128L38.1263 37.0575L45.0045 33.1321L35.6305 27.7351L24.8376 33.9488L15.0008 39.6119L24.3665 44.9128Z" fill="white"/>
</svg>
