<svg width="75" height="35" viewBox="0 0 75 35" fill="none" xmlns="http://www.w3.org/2000/svg">
<path d="M24.1616 25.8902L29.641 26.2933V30.9674C29.641 30.9674 19.4028 41.0381 4.48438 29.1145H9.56811L10.1315 24.5215C10.1315 24.5215 15.9333 30.4021 24.1616 25.8902Z" fill="#0D2C40"/>
<path d="M5.60538 4.29492C5.60538 4.29492 -5.52905 14.6482 3.58761 27.9039L8.67659 28.388L9.16138 23.4731C9.16138 23.4731 4.48382 15.8181 10.5266 9.77515L5.10749 9.35641L5.60538 4.29492Z" fill="#0D2C40"/>
<path d="M6.81646 3.57131C6.81646 3.57131 20.705 -5.37135 31.2629 5.42423L26.5828 5.10232L26.098 10.3365C26.098 10.3365 20.7731 3.89322 11.9002 8.88928L6.49414 8.6485L6.81646 3.57131Z" fill="#0D2C40"/>
<path d="M27.3066 11.6296L27.629 6.23047L32.5502 6.71463L47.3952 23.2312H42.3141L41.8293 27.8242L27.3066 11.6296Z" fill="#0D2C40"/>
<path d="M25.5332 25.0041L44.3299 4.29492L49.3324 4.77909L49.0101 9.85628L30.5357 30.4006L30.6143 25.0826L25.5332 25.0041Z" fill="#02D35F"/>
<path d="M45.0547 3.5514L50.259 3.97537L49.8973 8.93218C49.8973 8.93218 57.5806 4.03557 63.2094 9.23314L68.7124 9.47392L69.2077 4.64797C69.2077 4.64797 60.6072 -5.03534 45.0547 3.5514Z" fill="#02D35F"/>
<path d="M63.9971 10.0192L69.5001 10.3411L69.9246 5.48633C69.9246 5.48633 81.9657 18.8833 68.955 30.4038L63.6328 30.0348L64.1176 24.5389C64.1176 24.5389 71.3187 16.486 63.9971 10.0192Z" fill="#02D35F"/>
<path d="M48.6882 24.5232L43.1302 24.0391L42.8184 28.9357C42.8184 28.9357 52.6819 40.2965 67.5662 31.2309L62.4825 30.82L62.9672 25.5622C62.9672 25.5622 56.492 30.7467 48.6882 24.5232Z" fill="#02D35F"/>
<path d="M55.7227 16.058V17.89C55.7069 17.9613 55.6989 18.0341 55.6992 18.1072C55.6989 18.1811 55.7069 18.2548 55.7227 18.327V21.2791H54.3496V16.0449L55.7227 16.058Z" fill="#0D2C40"/>
<path d="M56.9307 16.0593C56.4784 16.1177 56.0559 16.3163 55.7226 16.6272C55.4928 16.8052 55.3026 17.0291 55.1641 17.2846C55.0256 17.5401 54.9418 17.8215 54.9181 18.1111C54.9384 18.4137 55.0202 18.7089 55.1585 18.9789C55.2968 19.2489 55.4888 19.4879 55.7226 19.6813C56.0146 19.9594 56.3925 20.1301 56.7944 20.1655C58.0706 20.1969 58.6995 19.1003 58.6995 18.1137C58.6995 17.127 57.9186 16.0017 56.9307 16.0593ZM56.514 19.0192C56.3242 19.0108 56.1428 18.9381 55.9999 18.8129C55.857 18.6878 55.761 18.5178 55.7279 18.3309C55.712 18.2587 55.7041 18.185 55.7043 18.1111C55.7041 18.038 55.712 17.9652 55.7279 17.8938C55.761 17.707 55.857 17.5369 55.9999 17.4118C56.1428 17.2867 56.3242 17.2139 56.514 17.2055C56.7403 17.2266 56.9505 17.3312 57.1035 17.499C57.2565 17.6667 57.3414 17.8855 57.3414 18.1124C57.3414 18.3393 57.2565 18.5581 57.1035 18.7258C56.9505 18.8935 56.7403 18.9982 56.514 19.0192ZM61.43 17.6217C61.2309 17.5589 60.4945 17.4437 60.4945 17.1663C60.4945 17.0093 60.7199 16.9909 60.8299 16.9962C61.1444 16.9962 61.6161 17.3704 61.8781 17.2998C62.1114 17.2396 62.3158 16.6376 62.4022 16.4335C61.7404 16.0562 60.9693 15.9159 60.2168 16.0357C60.0308 16.0711 59.8548 16.1463 59.7007 16.2562C59.5467 16.366 59.4183 16.5079 59.3244 16.6721C59.2305 16.8362 59.1733 17.0187 59.1569 17.2071C59.1404 17.3954 59.1649 17.5851 59.2288 17.763C59.5616 18.624 60.5836 18.2864 61.0999 18.8098C61.3121 19.0297 60.8745 19.1291 60.7304 19.1239C60.2872 19.0582 59.8634 18.8975 59.4883 18.6528C59.3599 18.836 58.9642 19.2731 59.0113 19.5008C59.0585 19.7284 59.58 19.8986 59.7975 19.9666C60.526 20.2021 61.6502 20.2911 62.1978 19.629C62.8818 18.8334 62.2843 17.8991 61.43 17.6217ZM50.7673 14.6094C50.1972 14.6094 49.6399 14.7782 49.1658 15.0945C48.6918 15.4109 48.3224 15.8605 48.1042 16.3865C47.886 16.9126 47.8289 17.4914 47.9402 18.0498C48.0514 18.6083 48.3259 19.1212 48.729 19.5238C49.1322 19.9264 49.6458 20.2006 50.2049 20.3117C50.7641 20.4228 51.3437 20.3658 51.8704 20.1479C52.3971 19.93 52.8473 19.561 53.164 19.0876C53.4808 18.6142 53.6498 18.0576 53.6498 17.4882C53.6498 16.7247 53.3461 15.9924 52.8056 15.4526C52.265 14.9127 51.5318 14.6094 50.7673 14.6094ZM50.7673 18.9564C50.4751 18.9559 50.1896 18.8689 49.9469 18.7064C49.7042 18.5439 49.5152 18.3132 49.4037 18.0434C49.2923 17.7736 49.2634 17.4769 49.3207 17.1908C49.378 16.9046 49.519 16.6419 49.7258 16.4357C49.9326 16.2295 50.1959 16.0892 50.4825 16.0325C50.7692 15.9757 51.0662 16.0051 51.3361 16.1169C51.606 16.2287 51.8367 16.4179 51.999 16.6606C52.1613 16.9032 52.2479 17.1885 52.2479 17.4803C52.2479 17.6746 52.2095 17.867 52.1349 18.0464C52.0603 18.2258 51.9509 18.3888 51.8131 18.5259C51.6753 18.6631 51.5118 18.7717 51.3319 18.8455C51.152 18.9194 50.9592 18.9571 50.7647 18.9564H50.7673Z" fill="#0D2C40"/>
<path d="M23.4664 15.9929H21.8234L23.5608 20.531H24.3102V18.597L23.4664 15.9929ZM25.1567 16.0008H26.7997L25.0597 20.5389H24.3102V18.6048L25.1567 16.0008ZM15.4897 15.3544C14.9379 14.9717 14.2976 14.7357 13.6292 14.6687C12.7434 14.5849 11.7948 14.6922 10.9746 14.6922V20.5258H11.0139C11.1711 20.5441 11.3284 20.5598 11.4882 20.5703C12.1181 20.6224 12.7513 20.6171 13.3802 20.5546C14.583 20.4211 15.3561 20.0311 15.8304 19.5234C16.2506 19.0509 16.4877 18.4438 16.4986 17.8118V17.6731V17.5998C16.4881 16.7702 16.2496 15.9354 15.4897 15.3544ZM14.1533 18.9189C13.658 19.1963 13.0553 19.1282 12.5102 19.1282V16.0898C13.0893 16.0898 13.7418 16.0139 14.2502 16.3698C15.094 16.9639 15.0626 18.4059 14.1454 18.9189H14.1533ZM21.1028 19.3742C20.9691 19.2617 20.7988 19.0707 20.618 19.0393C20.3297 19 19.9707 19.3873 19.651 19.4187C19.1531 19.4685 18.7941 19.1256 18.6028 18.7121H21.6321C21.6321 17.8746 21.5614 16.9927 20.846 16.4169C19.5174 15.3334 17.3371 16.1343 17.0934 17.8432C16.8314 19.6438 18.2491 20.8058 19.976 20.5807C20.4042 20.5203 20.8061 20.3387 21.1342 20.0573C21.2521 19.9526 21.4251 19.8087 21.3386 19.6386C21.2768 19.5368 21.1969 19.4472 21.1028 19.3742ZM20.1358 17.8903H18.5897C18.6231 17.7099 18.7187 17.5469 18.8599 17.4296C19.0012 17.3122 19.1791 17.248 19.3628 17.248C19.5465 17.248 19.7244 17.3122 19.8656 17.4296C20.0068 17.5469 20.1024 17.7099 20.1358 17.8903Z" fill="#02D35F"/>
</svg>
