<svg width="62" height="69" viewBox="0 0 62 69" fill="none" xmlns="http://www.w3.org/2000/svg">
<mask id="mask0_517_4256" style="mask-type:luminance" maskUnits="userSpaceOnUse" x="32" y="0" width="30" height="69">
<path d="M61.2668 17.1986L32.0547 0.529297V68.8522L43.7251 62.0886V42.8649L52.539 47.9602L52.4892 34.8083L43.7251 29.808V22.1718L61.3076 32.3172L61.2668 17.1986Z" fill="white"/>
</mask>
<g mask="url(#mask0_517_4256)">
<path d="M69.2575 0.28125H-2.48047V68.9387H69.2575V0.28125Z" fill="url(#paint0_linear_517_4256)"/>
</g>
<mask id="mask1_517_4256" style="mask-type:luminance" maskUnits="userSpaceOnUse" x="0" y="0" width="30" height="69">
<path d="M0.216536 17.1986L29.4287 0.529297V68.8522L17.7583 62.0886V22.1718L0.175781 32.3172L0.216536 17.1986Z" fill="white"/>
</mask>
<g mask="url(#mask1_517_4256)">
<path d="M68.7712 0.28125H-2.9668V68.9387H68.7712V0.28125Z" fill="url(#paint1_linear_517_4256)"/>
</g>
<defs>
<linearGradient id="paint0_linear_517_4256" x1="-2.48047" y1="34.61" x2="69.2575" y2="34.61" gradientUnits="userSpaceOnUse">
<stop stop-color="#FF6F00"/>
<stop offset="1" stop-color="#FFA800"/>
</linearGradient>
<linearGradient id="paint1_linear_517_4256" x1="-2.9668" y1="34.61" x2="68.7712" y2="34.61" gradientUnits="userSpaceOnUse">
<stop stop-color="#FF6F00"/>
<stop offset="1" stop-color="#FFA800"/>
</linearGradient>
</defs>
</svg>
