<svg width="58" height="28" viewBox="0 0 58 28" fill="none" xmlns="http://www.w3.org/2000/svg">
<path d="M18.6837 20.0194L22.9211 20.3311V23.9457C22.9211 23.9457 15.0036 31.7336 3.4668 22.5128H7.39818L7.83387 18.9609C7.83387 18.9609 12.3205 23.5086 18.6837 20.0194Z" fill="white"/>
<path d="M4.33478 3.32031C4.33478 3.32031 -4.27575 11.3268 2.77439 21.5777L6.70982 21.9521L7.08472 18.1513C7.08472 18.1513 3.46745 12.2314 8.14052 7.55831L3.94975 7.23449L4.33478 3.32031Z" fill="white"/>
<path d="M5.27074 2.7596C5.27074 2.7596 16.0111 -4.15599 24.1758 4.1925L20.5565 3.94357L20.1816 7.99132C20.1816 7.99132 16.0638 3.00854 9.20212 6.87212L5.02148 6.68592L5.27074 2.7596Z" fill="white"/>
<path d="M21.1172 8.98971L21.3664 4.81445L25.1722 5.18887L36.6522 17.9616H32.7229L32.348 21.5135L21.1172 8.98971Z" fill="white"/>
<path d="M19.7461 19.3372L34.2821 3.32227L38.1506 3.69668L37.9014 7.623L23.6147 23.5104L23.6754 19.3979L19.7461 19.3372Z" fill="white"/>
<path d="M34.8438 2.74639L38.8683 3.07426L38.5887 6.90748C38.5887 6.90748 44.5303 3.12081 48.8832 7.14022L53.1389 7.32642L53.5219 3.59439C53.5219 3.59439 46.8709 -3.89395 34.8438 2.74639Z" fill="white"/>
<path d="M49.4907 7.74754L53.7463 7.99648L54.0746 4.24219C54.0746 4.24219 63.3863 14.6024 53.3248 23.5115L49.209 23.2262L49.5839 18.976C49.5839 18.976 55.1527 12.7485 49.4907 7.74754Z" fill="white"/>
<path d="M37.6526 18.9643L33.3544 18.5898L33.1133 22.3765C33.1133 22.3765 40.741 31.1622 52.2514 24.1515L48.32 23.8337L48.6949 19.7677C48.6949 19.7677 43.6875 23.777 37.6526 18.9643Z" fill="white"/>
<path d="M43.0912 12.4183V13.835C43.0789 13.8902 43.0728 13.9465 43.0729 14.003C43.0728 14.0602 43.0789 14.1172 43.0912 14.173V16.456H42.0293V12.4082L43.0912 12.4183Z" fill="white"/>
<path d="M44.0247 12.4201C43.675 12.4653 43.3483 12.6189 43.0905 12.8592C42.9128 12.9969 42.7657 13.1701 42.6586 13.3676C42.5515 13.5652 42.4867 13.7829 42.4684 14.0068C42.4841 14.2408 42.5473 14.4691 42.6543 14.6779C42.7612 14.8867 42.9097 15.0715 43.0905 15.2211C43.3163 15.4361 43.6086 15.5682 43.9193 15.5955C44.9062 15.6198 45.3926 14.7718 45.3926 14.0088C45.3926 13.2458 44.7887 12.3755 44.0247 12.4201ZM43.7025 14.7091C43.5557 14.7026 43.4155 14.6463 43.3049 14.5496C43.1944 14.4528 43.1202 14.3213 43.0946 14.1768C43.0823 14.121 43.0762 14.0639 43.0763 14.0068C43.0762 13.9503 43.0823 13.8939 43.0946 13.8388C43.1202 13.6943 43.1944 13.5628 43.3049 13.466C43.4155 13.3693 43.5557 13.313 43.7025 13.3065C43.8775 13.3228 44.04 13.4037 44.1584 13.5334C44.2767 13.6631 44.3423 13.8323 44.3423 14.0078C44.3423 14.1833 44.2767 14.3524 44.1584 14.4822C44.04 14.6119 43.8775 14.6928 43.7025 14.7091ZM47.5042 13.6283C47.3502 13.5797 46.7807 13.4907 46.7807 13.2762C46.7807 13.1547 46.955 13.1406 47.0401 13.1446C47.2833 13.1446 47.6481 13.434 47.8507 13.3794C48.0311 13.3328 48.1892 12.8673 48.256 12.7095C47.7442 12.4177 47.1479 12.3092 46.5659 12.4018C46.4221 12.4292 46.286 12.4874 46.1669 12.5723C46.0477 12.6573 45.9485 12.767 45.8759 12.894C45.8032 13.0209 45.759 13.1621 45.7463 13.3077C45.7335 13.4533 45.7525 13.6 45.802 13.7376C46.0593 14.4035 46.8496 14.1424 47.2489 14.5472C47.413 14.7172 47.0746 14.7941 46.9631 14.79C46.6204 14.7392 46.2927 14.6149 46.0026 14.4257C45.9033 14.5674 45.5973 14.9054 45.6338 15.0815C45.6702 15.2575 46.0735 15.3891 46.2417 15.4417C46.8051 15.6239 47.6744 15.6927 48.098 15.1806C48.6269 14.5654 48.1648 13.8428 47.5042 13.6283ZM39.2584 11.2988C38.8175 11.2988 38.3866 11.4294 38.02 11.674C37.6534 11.9186 37.3677 12.2663 37.199 12.6731C37.0303 13.0799 36.9861 13.5276 37.0721 13.9594C37.1581 14.3913 37.3704 14.788 37.6822 15.0993C37.9939 15.4107 38.3911 15.6227 38.8235 15.7086C39.256 15.7945 39.7042 15.7504 40.1115 15.5819C40.5188 15.4134 40.8669 15.128 41.1119 14.7619C41.3568 14.3958 41.4876 13.9654 41.4876 13.5251C41.4876 12.9347 41.2527 12.3684 40.8347 11.9509C40.4166 11.5334 39.8496 11.2988 39.2584 11.2988ZM39.2584 14.6605C39.0325 14.6601 38.8117 14.5928 38.624 14.4671C38.4363 14.3415 38.2901 14.1631 38.2039 13.9544C38.1177 13.7458 38.0954 13.5164 38.1397 13.2951C38.1841 13.0738 38.2931 12.8706 38.453 12.7112C38.6129 12.5517 38.8166 12.4432 39.0382 12.3993C39.2599 12.3555 39.4896 12.3782 39.6983 12.4646C39.907 12.5511 40.0854 12.6974 40.2109 12.8851C40.3364 13.0727 40.4034 13.2933 40.4034 13.519C40.4034 13.6693 40.3737 13.818 40.316 13.9568C40.2583 14.0955 40.1738 14.2215 40.0672 14.3276C39.9606 14.4336 39.8342 14.5176 39.695 14.5748C39.5559 14.6319 39.4068 14.661 39.2564 14.6605H39.2584Z" fill="white"/>
<path d="M18.1466 12.3672H16.876L18.2195 15.8766H18.7991V14.3809L18.1466 12.3672ZM19.4537 12.3732H20.7243L19.3787 15.8826H18.7991V14.387L19.4537 12.3732ZM11.978 11.8733C11.5512 11.5774 11.0561 11.3949 10.5392 11.3431C9.85421 11.2783 9.12062 11.3613 8.48633 11.3613V15.8725H8.51672C8.63831 15.8867 8.7599 15.8988 8.88352 15.9069C9.37058 15.9472 9.86031 15.9432 10.3466 15.8948C11.2768 15.7916 11.8746 15.49 12.2414 15.0974C12.5664 14.732 12.7497 14.2624 12.7582 13.7738V13.6665V13.6098C12.7501 12.9683 12.5656 12.3226 11.978 11.8733ZM10.9445 14.6299C10.5614 14.8444 10.0954 14.7918 9.67385 14.7918V12.442C10.1217 12.442 10.6263 12.3833 11.0194 12.6586C11.672 13.118 11.6476 14.2332 10.9384 14.6299H10.9445ZM16.3187 14.982C16.2153 14.895 16.0836 14.7472 15.9438 14.723C15.7209 14.6926 15.4433 14.9921 15.196 15.0164C14.811 15.0549 14.5334 14.7897 14.3854 14.47H16.728C16.728 13.8223 16.6733 13.1403 16.1201 12.695C15.0927 11.8571 13.4066 12.4764 13.2182 13.798C13.0155 15.1905 14.1119 16.0891 15.4473 15.915C15.7785 15.8683 16.0893 15.7278 16.343 15.5102C16.4342 15.4293 16.568 15.318 16.5011 15.1864C16.4533 15.1077 16.3915 15.0384 16.3187 14.982ZM15.5709 13.8345H14.3753C14.4011 13.695 14.4751 13.5689 14.5843 13.4781C14.6935 13.3874 14.831 13.3377 14.9731 13.3377C15.1152 13.3377 15.2527 13.3874 15.362 13.4781C15.4712 13.5689 15.5451 13.695 15.5709 13.8345Z" fill="white"/>
</svg>
