<svg width="75" height="67" viewBox="0 0 75 67" fill="none" xmlns="http://www.w3.org/2000/svg">
<path d="M61.6651 21.7296C60.887 21.4618 60.0808 21.2084 59.2507 20.9688C59.3872 20.4119 59.5124 19.8623 59.6237 19.3221C61.4513 10.4507 60.2564 3.30378 56.176 0.95073C52.2634 -1.30554 45.8646 1.04698 39.4022 6.67103C38.7808 7.21183 38.1576 7.78441 37.5347 8.38449C37.1197 7.98746 36.7053 7.60379 36.292 7.2368C29.5192 1.2232 22.7305 -1.31101 18.6541 1.04885C14.7452 3.31166 13.5877 10.0304 15.2328 18.4379C15.3916 19.25 15.5773 20.0793 15.7873 20.9224C14.8265 21.1952 13.899 21.4859 13.0115 21.7953C5.07109 24.5636 0 28.9023 0 33.4027C0 38.0508 5.44382 42.7128 13.7144 45.5397C14.367 45.7627 15.0443 45.9737 15.7422 46.1739C15.5157 47.0858 15.3186 47.9795 15.1532 48.8511C13.5846 57.1127 14.8096 63.6727 18.708 65.9212C22.7347 68.2433 29.4927 65.8565 36.0733 60.1043C36.5934 59.6496 37.1154 59.1674 37.6383 58.6619C38.3161 59.3146 38.9928 59.9323 39.6659 60.5117C46.0399 65.9968 52.3353 68.2117 56.2302 65.9569C60.2529 63.6281 61.5603 56.5811 59.8629 48.0073C59.7333 47.3524 59.5825 46.6835 59.4131 46.0026C59.8876 45.8623 60.3536 45.7175 60.8079 45.5669C69.4059 42.7182 75 38.1128 75 33.4027C75 28.8861 69.7654 24.5181 61.6651 21.7296ZM59.8002 42.5257C59.3901 42.6614 58.9693 42.7927 58.5405 42.9199C57.5913 39.9149 56.3103 36.7197 54.7426 33.4184C56.2386 30.1957 57.4701 27.0412 58.3927 24.0558C59.1599 24.2778 59.9046 24.512 60.6222 24.7591C67.5625 27.1483 71.796 30.6808 71.796 33.4027C71.796 36.3021 67.224 40.0658 59.8002 42.5257ZM56.7199 48.6295C57.4704 52.4207 57.5776 55.8485 57.0804 58.528C56.6337 60.9358 55.7354 62.5412 54.6247 63.1841C52.2611 64.5522 47.2066 62.7738 41.7554 58.083C41.1305 57.5452 40.5011 56.971 39.8696 56.3634C41.9829 54.0521 44.095 51.3652 46.1563 48.3811C49.782 48.0593 53.2075 47.5333 56.3139 46.8152C56.4669 47.4324 56.6028 48.0377 56.7199 48.6295ZM25.5692 62.9477C23.2599 63.7632 21.4207 63.7866 20.3089 63.1455C17.9432 61.781 16.9597 56.5139 18.3012 49.4486C18.4549 48.6395 18.6378 47.8083 18.8486 46.9588C21.9209 47.6381 25.3213 48.127 28.9557 48.4216C31.0309 51.3417 33.204 54.0257 35.3939 56.3758C34.9155 56.8377 34.4389 57.2774 33.9649 57.6918C31.0551 60.2354 28.139 62.04 25.5692 62.9477ZM14.7506 42.5079C11.0935 41.2579 8.07335 39.6334 6.00318 37.8607C4.14301 36.2676 3.20384 34.6861 3.20384 33.4027C3.20384 30.6717 7.27543 27.1884 14.0661 24.8207C14.8901 24.5335 15.7526 24.2627 16.6477 24.0084C17.5862 27.0613 18.8174 30.2531 20.3031 33.4807C18.7981 36.7562 17.5495 39.9989 16.6018 43.0876C15.9637 42.9041 15.3454 42.7111 14.7506 42.5079ZM18.3771 17.8226C16.9676 10.6193 17.9037 5.18532 20.2593 3.82176C22.7684 2.36916 28.3167 4.44026 34.1645 9.6327C34.5383 9.96458 34.9136 10.3119 35.2899 10.6713C33.1108 13.0112 30.9576 15.675 28.9008 18.5778C25.3735 18.9047 21.997 19.4299 18.8926 20.1332C18.6975 19.3481 18.5246 18.5767 18.3771 17.8226ZM50.7287 25.811C49.9866 24.5292 49.2247 23.2776 48.448 22.0603C50.841 22.3628 53.1337 22.7643 55.2867 23.2557C54.6403 25.3274 53.8347 27.4934 52.8863 29.7139C52.206 28.4223 51.4864 27.12 50.7287 25.811ZM37.5358 12.9611C39.0136 14.5622 40.4936 16.3497 41.9493 18.2892C40.4824 18.2199 38.9973 18.1838 37.5 18.1838C36.0168 18.1838 34.5427 18.2191 33.0849 18.2872C34.5421 16.3657 36.0348 14.5806 37.5358 12.9611ZM24.2584 25.8332C23.517 27.1187 22.8108 28.4139 22.1412 29.7115C21.2082 27.4987 20.41 25.3228 19.758 23.2218C21.8978 22.743 24.1797 22.3514 26.5575 22.0547C25.7698 23.2832 25.0017 24.5443 24.2584 25.8332ZM26.626 44.9794C24.1693 44.7053 21.8531 44.3339 19.7138 43.8683C20.3762 41.7297 21.192 39.5074 22.1448 37.247C22.8162 38.5436 23.5252 39.8394 24.271 41.1277C25.0308 42.4401 25.818 43.7257 26.626 44.9794ZM37.6244 54.0702C36.1059 52.4318 34.5912 50.6194 33.1119 48.6699C34.5479 48.7263 36.012 48.7551 37.5 48.7551C39.0287 48.7551 40.5399 48.7207 42.0274 48.6545C40.5669 50.6391 39.0922 52.4542 37.6244 54.0702ZM52.9169 37.1318C53.9193 39.4166 54.7644 41.6273 55.4353 43.7294C53.2608 44.2255 50.9129 44.6251 48.4392 44.922C49.2177 43.6882 49.9863 42.4151 50.7415 41.1056C51.5055 39.7808 52.2309 38.4539 52.9169 37.1318ZM47.9662 39.505C46.7938 41.5378 45.5902 43.4783 44.3683 45.31C42.1427 45.4692 39.8434 45.5511 37.5 45.5511C35.166 45.5511 32.8958 45.4786 30.7096 45.3367C29.4384 43.481 28.2086 41.5347 27.0437 39.5225C25.8818 37.5157 24.8128 35.492 23.8439 33.4796C24.8125 31.4626 25.879 29.4366 27.0342 27.4335L27.0339 27.4339C28.1922 25.4254 29.4112 23.4886 30.6706 21.6444C32.9011 21.4758 35.1883 21.3878 37.4999 21.3878C39.8218 21.3878 42.1121 21.4765 44.342 21.6465C45.5822 23.4772 46.7929 25.4077 47.9556 27.4165C49.1316 29.4478 50.2119 31.4603 51.1889 33.4341C50.2148 35.4418 49.137 37.4746 47.9662 39.505ZM54.5756 3.72644C57.0871 5.17477 58.0638 11.0159 56.4858 18.6754C56.3852 19.1641 56.2718 19.6619 56.1487 20.1664C53.0371 19.4485 49.6583 18.9142 46.1207 18.5823C44.0599 15.6476 41.9243 12.9797 39.7807 10.6699C40.357 10.1154 40.9325 9.58678 41.5056 9.08789C47.0426 4.26925 52.2177 2.36675 54.5756 3.72644ZM37.5 26.7055C41.1987 26.7055 44.1972 29.7039 44.1972 33.4027C44.1972 37.1015 41.1987 40.1 37.5 40.1C33.8013 40.1 30.8028 37.1015 30.8028 33.4027C30.8028 29.7039 33.8013 26.7055 37.5 26.7055Z" fill="#00D8FF"/>
</svg>
