<svg width="60" height="54" viewBox="0 0 60 54" fill="none" xmlns="http://www.w3.org/2000/svg">
<path d="M49.332 17.5837C48.7096 17.3694 48.0647 17.1667 47.4006 16.975C47.5097 16.5296 47.6099 16.0899 47.699 15.6576C49.1611 8.56052 48.2051 2.84303 44.9408 0.960584C41.8107 -0.844429 36.6917 1.03759 31.5218 5.53682C31.0246 5.96947 30.5261 6.42753 30.0278 6.90759C29.6957 6.58997 29.3642 6.28303 29.0336 5.98944C23.6153 1.17856 18.1844 -0.848808 14.9233 1.03908C11.7962 2.84933 10.8701 8.22432 12.1862 14.9503C12.3133 15.6 12.4619 16.2634 12.6299 16.938C11.8612 17.1561 11.1192 17.3888 10.4092 17.6362C4.05687 19.8509 0 23.3219 0 26.9222C0 30.6406 4.35506 34.3703 10.9715 36.6317C11.4936 36.8102 12.0354 36.9789 12.5938 37.1391C12.4125 37.8687 12.2549 38.5836 12.1226 39.2809C10.8677 45.8902 11.8477 51.1382 14.9664 52.937C18.1878 54.7946 23.5942 52.8852 28.8586 48.2834C29.2747 47.9197 29.6923 47.5339 30.1106 47.1296C30.6529 47.6517 31.1942 48.1459 31.7327 48.6094C36.8319 52.9974 41.8683 54.7693 44.9841 52.9655C48.2023 51.1025 49.2482 45.4649 47.8904 38.6058C47.7867 38.082 47.666 37.5468 47.5304 37.0021C47.9101 36.8899 48.2828 36.774 48.6463 36.6535C55.5247 34.3745 60 30.6903 60 26.9222C60 23.3088 55.8123 19.8145 49.332 17.5837ZM47.8402 34.2205C47.5121 34.3291 47.1754 34.4341 46.8324 34.5359C46.0731 32.132 45.0482 29.5757 43.7941 26.9347C44.9909 24.3566 45.9761 21.833 46.7142 19.4446C47.328 19.6222 47.9237 19.8096 48.4977 20.0073C54.05 21.9186 57.4368 24.7447 57.4368 26.9222C57.4368 29.2417 53.7792 32.2526 47.8402 34.2205ZM45.3759 39.1036C45.9763 42.1366 46.0621 44.8788 45.6643 47.0224C45.307 48.9487 44.5883 50.2329 43.6998 50.7473C41.8089 51.8418 37.7653 50.4191 33.4043 46.6664C32.9044 46.2362 32.4008 45.7768 31.8957 45.2907C33.5863 43.4417 35.276 41.2921 36.9251 38.9048C39.8256 38.6475 42.566 38.2267 45.0511 37.6522C45.1735 38.1459 45.2822 38.6302 45.3759 39.1036ZM20.4554 50.5581C18.6079 51.2106 17.1366 51.2293 16.2471 50.7164C14.3546 49.6248 13.5678 45.4112 14.641 39.7589C14.7639 39.1116 14.9102 38.4467 15.0789 37.767C17.5367 38.3105 20.257 38.7016 23.1645 38.9373C24.8247 41.2733 26.5632 43.4205 28.3151 45.3006C27.9324 45.6701 27.5511 46.0219 27.172 46.3534C24.8441 48.3883 22.5112 49.832 20.4554 50.5581ZM11.8005 34.2063C8.8748 33.2064 6.45868 31.9067 4.80255 30.4885C3.31441 29.2141 2.56307 27.9488 2.56307 26.9222C2.56307 24.7374 5.82034 21.9507 11.2529 20.0566C11.9121 19.8268 12.6021 19.6102 13.3182 19.4067C14.069 21.849 15.0539 24.4025 16.2424 26.9846C15.0385 29.605 14.0396 32.1991 13.2814 34.67C12.7709 34.5233 12.2764 34.3689 11.8005 34.2063ZM14.7017 14.4581C13.5741 8.69541 14.3229 4.34825 16.2074 3.25741C18.2147 2.09533 22.6534 3.75221 27.3316 7.90616C27.6307 8.17167 27.9309 8.44956 28.2319 8.73706C26.4887 10.6089 24.7661 12.74 23.1206 15.0622C20.2988 15.3238 17.5976 15.7439 15.1141 16.3066C14.958 15.6785 14.8197 15.0614 14.7017 14.4581ZM40.5829 20.8488C39.9893 19.8234 39.3797 18.8221 38.7584 17.8482C40.6728 18.0902 42.5069 18.4115 44.2294 18.8046C43.7123 20.4619 43.0677 22.1947 42.309 23.9711C41.7648 22.9378 41.1891 21.896 40.5829 20.8488ZM30.0286 10.5689C31.2109 11.8497 32.3949 13.2798 33.5594 14.8313C32.3859 14.7759 31.1979 14.7471 30 14.7471C28.8135 14.7471 27.6342 14.7753 26.4679 14.8297C27.6336 13.2926 28.8279 11.8645 30.0286 10.5689ZM19.4067 20.8666C18.8136 21.8949 18.2487 22.9311 17.713 23.9692C16.9665 22.199 16.328 20.4583 15.8064 18.7775C17.5183 18.3944 19.3438 18.0811 21.246 17.8437C20.6159 18.8266 20.0014 19.8354 19.4067 20.8666ZM21.3008 36.1835C19.3355 35.9642 17.4825 35.6671 15.771 35.2946C16.301 33.5838 16.9536 31.8059 17.7158 29.9976C18.2529 31.0349 18.8202 32.0715 19.4168 33.1021C20.0246 34.1521 20.6544 35.1805 21.3008 36.1835ZM30.0995 43.4562C28.8847 42.1455 27.673 40.6955 26.4895 39.136C27.6383 39.181 28.8096 39.2041 30 39.2041C31.223 39.2041 32.4319 39.1765 33.6219 39.1236C32.4535 40.7112 31.2738 42.1634 30.0995 43.4562ZM42.3335 29.9054C43.1354 31.7333 43.8115 33.5019 44.3483 35.1835C42.6086 35.5804 40.7303 35.9 38.7513 36.1376C39.3742 35.1505 39.989 34.1321 40.5932 33.0845C41.2044 32.0246 41.7848 30.9632 42.3335 29.9054ZM38.3729 31.804C37.435 33.4302 36.4721 34.9826 35.4946 36.448C33.7142 36.5753 31.8748 36.6409 30 36.6409C28.1328 36.6409 26.3166 36.5829 24.5677 36.4694C23.5507 34.9848 22.5669 33.4278 21.635 31.818C20.7055 30.2126 19.8502 28.5936 19.0751 26.9837C19.85 25.3701 20.7032 23.7493 21.6274 22.1468L21.6272 22.1471C22.5537 20.5403 23.5289 18.9909 24.5365 17.5155C26.3209 17.3806 28.1507 17.3103 29.9999 17.3103C31.8575 17.3103 33.6897 17.3812 35.4736 17.5172C36.4657 18.9818 37.4343 20.5262 38.3645 22.1332C39.3053 23.7583 40.1695 25.3683 40.9511 26.9473C40.1719 28.5534 39.3096 30.1797 38.3729 31.804ZM43.6605 3.18115C45.6697 4.33982 46.451 9.01271 45.1887 15.1403C45.1081 15.5313 45.0175 15.9296 44.919 16.3332C42.4297 15.7588 39.7266 15.3314 36.8966 15.0659C35.2479 12.7181 33.5394 10.5837 31.8246 8.73589C32.2856 8.29235 32.746 7.86942 33.2045 7.47032C37.6341 3.6154 41.7742 2.0934 43.6605 3.18115ZM30 21.5644C32.959 21.5644 35.3578 23.9631 35.3578 26.9222C35.3578 29.8812 32.959 32.28 30 32.28C27.041 32.28 24.6422 29.8812 24.6422 26.9222C24.6422 23.9631 27.041 21.5644 30 21.5644Z" fill="white"/>
</svg>
