<svg width="37" height="33" viewBox="0 0 37 33" fill="none" xmlns="http://www.w3.org/2000/svg">
<path d="M20.5716 30.2863C26.3773 20.0159 20.3296 12.8022 16.5801 10.4791C15.9995 7.54463 19.483 3.14311 21.2973 1.30916C22.1681 0.428835 23.3535 0.697822 23.8373 0.942355L24.9259 1.67596C27.2482 2.84972 26.6192 3.87676 26.0145 4.24356C23.9824 6.29764 22.7487 9.25646 22.3859 10.4791C31.6751 9.30535 35.5109 15.829 36.1745 20.0159C36.7551 28.5257 30.8526 31.6313 27.8288 32.1203C19.991 33.0006 19.7249 31.2645 20.5716 30.2863Z" fill="#D1D5D8"/>
<path d="M19.8565 24.8016C21.545 12.7009 12.5867 10.8483 7.89652 11.4345C8.17794 8.33913 11.2969 4.98548 12.8212 3.69559C13.5248 3.22655 14.5097 2.00707 12.8212 0.881423C11.1328 -0.244222 10.0071 -0.0566144 9.65534 0.177895C-4.41522 11.4343 -0.369971 24.2717 4.73065 29.0226C14.2986 36.3393 18.8012 29.2572 19.8565 24.8016Z" fill="#D1D5D8"/>
</svg>
