<svg width="24" height="24" viewBox="0 0 24 24" fill="none" xmlns="http://www.w3.org/2000/svg">
<path d="M21.5599 4.6074C21.3219 4.32353 21.0026 4.11954 20.6449 4.02297C20.2872 3.92641 19.9085 3.94191 19.5599 4.06739C19.2404 4.19515 18.9657 4.41429 18.77 4.6974L16.21 7.17739L13.55 3.53739C13.4342 3.32752 13.2767 3.14338 13.0875 2.99615C12.8983 2.84891 12.6813 2.74166 12.4493 2.68087C12.2174 2.62009 11.9755 2.60706 11.7384 2.64256C11.5013 2.67806 11.2739 2.76136 11.0699 2.8874C10.8105 3.04679 10.5969 3.27075 10.45 3.53739L7.79004 7.17739L5.22998 4.6974C5.0724 4.47067 4.86397 4.28394 4.62134 4.15216C4.3787 4.02037 4.10862 3.94719 3.83264 3.93844C3.55667 3.92969 3.28248 3.98565 3.03198 4.1018C2.78149 4.21796 2.56164 4.3911 2.39001 4.6074C2.14293 4.91368 2.00561 5.29393 2 5.6874V15.4874C2 17.0495 2.62051 18.5476 3.7251 19.6522C4.82969 20.7568 6.32789 21.3774 7.89001 21.3774H16.11C17.6705 21.3721 19.1656 20.7498 20.269 19.6464C21.3725 18.5429 21.9947 17.0479 22 15.4874V5.6574C21.9687 5.26952 21.8145 4.90172 21.5599 4.6074ZM15.99 17.5174H7.98999C7.72477 17.5174 7.47037 17.412 7.28284 17.2245C7.0953 17.0369 6.98999 16.7826 6.98999 16.5174C6.98999 16.2521 7.0953 15.9978 7.28284 15.8103C7.47037 15.6227 7.72477 15.5174 7.98999 15.5174H15.99C16.2552 15.5174 16.5096 15.6227 16.6971 15.8103C16.8847 15.9978 16.99 16.2521 16.99 16.5174C16.99 16.7826 16.8847 17.0369 16.6971 17.2245C16.5096 17.412 16.2552 17.5174 15.99 17.5174Z" fill="white"/>
</svg>
