<svg width="24" height="24" viewBox="0 0 24 24" fill="none" xmlns="http://www.w3.org/2000/svg">
<path d="M21.4501 11.2266H20.0601C19.8784 9.33613 19.0446 7.56781 17.7017 6.22491C16.3588 4.88202 14.5905 4.04825 12.7001 3.86658V2.47656C12.7001 2.27765 12.621 2.08688 12.4803 1.94623C12.3397 1.80558 12.149 1.72656 11.9501 1.72656C11.7512 1.72656 11.5603 1.80558 11.4197 1.94623C11.279 2.08688 11.2001 2.27765 11.2001 2.47656V3.86658C9.31791 4.05733 7.56019 4.89532 6.22705 6.23758C4.89391 7.57984 4.06793 9.34315 3.89001 11.2266H2.5C2.30109 11.2266 2.11038 11.3056 1.96973 11.4462C1.82907 11.5869 1.75 11.7777 1.75 11.9766C1.75 12.1755 1.82907 12.3663 1.96973 12.5069C2.11038 12.6476 2.30109 12.7266 2.5 12.7266H3.89001C4.07168 14.617 4.90552 16.3853 6.24841 17.7282C7.59131 19.0711 9.35957 19.9049 11.25 20.0866V21.4766C11.25 21.6755 11.3291 21.8663 11.4697 22.0069C11.6104 22.1476 11.8011 22.2266 12 22.2266C12.1989 22.2266 12.3897 22.1476 12.5304 22.0069C12.671 21.8663 12.75 21.6755 12.75 21.4766V20.0866C14.6397 19.903 16.407 19.0687 17.7495 17.7261C19.092 16.3836 19.9265 14.6163 20.11 12.7266H21.5C21.6989 12.7266 21.8897 12.6476 22.0304 12.5069C22.171 12.3663 22.25 12.1755 22.25 11.9766C22.25 11.7777 22.171 11.5869 22.0304 11.4462C21.8897 11.3056 21.6989 11.2266 21.5 11.2266H21.4501ZM11.9501 18.6166C10.6368 18.6166 9.35293 18.2272 8.26099 17.4975C7.16904 16.7679 6.318 15.7309 5.81543 14.5176C5.31286 13.3043 5.18142 11.9692 5.43762 10.6812C5.69383 9.39312 6.32626 8.20999 7.25488 7.28137C8.1835 6.35275 9.36663 5.72035 10.6547 5.46414C11.9427 5.20794 13.2778 5.33944 14.4911 5.84201C15.7044 6.34458 16.7413 7.19563 17.4709 8.28757C18.2006 9.37951 18.59 10.6633 18.59 11.9766C18.59 13.7385 17.8907 15.4285 16.6458 16.6753C15.4008 17.9221 13.712 18.6239 11.9501 18.6266V18.6166Z" fill="white"/>
<path d="M16.4803 11.9873C16.4803 12.8857 16.2139 13.7638 15.7146 14.5106C15.2153 15.2575 14.5055 15.8393 13.6754 16.1827C12.8452 16.526 11.9319 16.6153 11.051 16.4393C10.17 16.2633 9.36105 15.83 8.72652 15.194C8.09199 14.5581 7.66046 13.7482 7.48641 12.8669C7.31236 11.9855 7.40371 11.0724 7.74886 10.243C8.09402 9.41356 8.67746 8.70519 9.42537 8.20753C10.1733 7.70987 11.052 7.4453 11.9504 7.44728C12.5461 7.44727 13.136 7.56476 13.6862 7.79304C14.2365 8.02132 14.7363 8.35592 15.1571 8.77763C15.5778 9.19934 15.9113 9.69989 16.1384 10.2507C16.3655 10.8015 16.4816 11.3916 16.4803 11.9873Z" fill="white"/>
</svg>
