<svg width="60" height="60" viewBox="0 0 60 60" fill="none" xmlns="http://www.w3.org/2000/svg">
<g clip-path="url(#clip0_517_4202)">
<path fill-rule="evenodd" clip-rule="evenodd" d="M25.0183 31.6645C25.0183 31.6645 23.5852 32.4984 26.0393 32.7801C29.0132 33.1197 30.5322 33.0709 33.8084 32.4511C33.8084 32.4511 34.6709 32.9912 35.8749 33.4584C28.5285 36.6063 19.2488 33.2763 25.0183 31.6645ZM24.1203 27.5566C24.1203 27.5566 22.5125 28.7466 24.9688 29.0006C28.1457 29.3287 30.6533 29.3555 34.9953 28.52C34.9953 28.52 35.5948 29.1286 36.5383 29.461C27.6573 32.0586 17.7662 29.6655 24.1203 27.5566Z" fill="white"/>
<path fill-rule="evenodd" clip-rule="evenodd" d="M31.6872 20.5889C33.4982 22.6735 31.2125 24.5483 31.2125 24.5483C31.2125 24.5483 35.8088 22.1761 33.6977 19.2044C31.7267 16.4343 30.2149 15.0582 38.3986 10.3125C38.3986 10.3125 25.5523 13.5196 31.6872 20.5889Z" fill="white"/>
<path fill-rule="evenodd" clip-rule="evenodd" d="M41.4025 34.7045C41.4025 34.7045 42.4633 35.5792 40.234 36.2556C35.9947 37.5396 22.5866 37.9268 18.8622 36.3066C17.5243 35.7239 20.0345 34.9162 20.8242 34.7456C21.6478 34.5675 22.1178 34.5999 22.1178 34.5999C20.629 33.5515 12.4945 36.659 17.9866 37.5505C32.9626 39.9787 45.2866 36.4573 41.4025 34.7045ZM25.7071 23.3013C25.7071 23.3013 18.8877 24.9215 23.2926 25.5104C25.153 25.7591 28.8591 25.7018 32.3139 25.412C35.1365 25.1751 37.9698 24.6684 37.9698 24.6684C37.9698 24.6684 36.9752 25.0951 36.2546 25.5863C29.3285 27.4082 15.9505 26.5597 19.8022 24.6973C23.0588 23.122 25.7071 23.3013 25.7071 23.3013ZM37.9414 30.139C44.9815 26.4816 41.7265 22.966 39.4539 23.4398C38.8983 23.5559 38.649 23.6561 38.649 23.6561C38.649 23.6561 38.8563 23.3318 39.2504 23.1923C43.7455 21.6126 47.2019 27.8527 37.8011 30.3239C37.8007 30.3239 37.9091 30.2262 37.9414 30.139Z" fill="white"/>
<path fill-rule="evenodd" clip-rule="evenodd" d="M33.6974 2.64648C33.6974 2.64648 37.5955 6.54706 29.9991 12.5431C23.9072 17.3548 28.6102 20.0975 29.9973 23.2323C26.4407 20.024 23.8319 17.1992 25.5819 14.5708C28.1511 10.7125 35.2703 8.84147 33.6974 2.64648Z" fill="white"/>
<path fill-rule="evenodd" clip-rule="evenodd" d="M26.3988 40.0529C33.1553 40.485 43.5329 39.813 43.7791 36.6152C43.7791 36.6152 43.3066 37.8273 38.1945 38.7889C32.4269 39.8746 25.3121 39.7482 21.0938 39.0519C21.0938 39.0519 21.9582 39.7672 26.3988 40.0529Z" fill="white"/>
<path fill-rule="evenodd" clip-rule="evenodd" d="M43.4673 45.7883H43.2619V45.6732H43.8163V45.7883H43.6108V46.3636H43.4673V45.7883ZM44.5736 45.817H44.5711L44.3669 46.3633H44.2732L44.0703 45.817H44.0678V46.3633H43.9315V45.6729H44.1316L44.3196 46.1612L44.5076 45.6729H44.7059V46.3633H44.5739L44.5736 45.817ZM25.292 52.2706C24.6549 52.8228 23.9813 53.1335 23.3765 53.1335C22.5148 53.1335 22.0473 52.6158 22.0473 51.7875C22.0473 50.8907 22.5478 50.2346 24.5512 50.2346H25.2917L25.292 52.2706ZM27.0507 54.2547V48.1126C27.0507 46.5429 26.1555 45.5069 23.9974 45.5069C22.7383 45.5069 21.6346 45.8179 20.7372 46.2142L20.9955 47.3021C21.7024 47.0425 22.6163 46.8018 23.5134 46.8018C24.7566 46.8018 25.2917 47.3021 25.2917 48.3377V49.1143H24.6704C21.6504 49.1143 20.2877 50.2859 20.2877 52.0474C20.2877 53.5652 21.1857 54.4281 22.8762 54.4281C23.9629 54.4281 24.7747 53.9795 25.5326 53.323L25.6705 54.2547H27.0507ZM32.9204 54.2547H30.7275L28.087 45.6632H30.0025L31.6414 50.9427L32.0062 52.529C32.833 50.2346 33.4197 47.9053 33.7133 45.6632H35.5759C35.0773 48.4921 34.1789 51.598 32.9204 54.2547ZM41.3364 52.2706C40.6973 52.8228 40.0237 53.1335 39.4202 53.1335C38.5585 53.1335 38.0916 52.6158 38.0916 51.7875C38.0916 50.8907 38.5925 50.2346 40.5946 50.2346H41.3364V52.2706ZM43.0957 54.2547V48.1126C43.0957 46.5429 42.1977 45.5069 40.0418 45.5069C38.7814 45.5069 37.678 45.8179 36.7806 46.2142L37.0389 47.3021C37.7458 47.0425 38.6616 46.8018 39.559 46.8018C40.8003 46.8018 41.336 47.3021 41.336 48.3377V49.1143H40.7147C37.6944 49.1143 36.3326 50.2859 36.3326 52.0474C36.3326 53.5652 37.2288 54.4281 38.9196 54.4281C40.0072 54.4281 40.8178 53.9795 41.5776 53.323L41.7161 54.2547H43.0957ZM18.3593 55.7146C17.8582 56.447 17.0476 57.0269 16.1614 57.354L15.293 56.3312C15.9681 55.9847 16.5465 55.4254 16.8157 54.9049C17.0476 54.4411 17.1444 53.8447 17.1444 52.4172V42.6074H19.0136V52.2818C19.0136 54.1912 18.8611 54.9628 18.3593 55.7146Z" fill="white"/>
</g>
<defs>
<clipPath id="clip0_517_4202">
<rect width="60" height="60" fill="white"/>
</clipPath>
</defs>
</svg>
