<svg width="75" height="75" viewBox="0 0 75 75" fill="none" xmlns="http://www.w3.org/2000/svg">
<g clip-path="url(#clip0_517_4211)">
<path fill-rule="evenodd" clip-rule="evenodd" d="M31.2729 39.5821C31.2729 39.5821 29.4815 40.6245 32.5491 40.9766C36.2665 41.4011 38.1653 41.34 42.2605 40.5654C42.2605 40.5654 43.3387 41.2404 44.8437 41.8245C35.6607 45.7594 24.061 41.5968 31.2729 39.5821ZM30.1503 34.4473C30.1503 34.4473 28.1407 35.9348 31.211 36.2523C35.1821 36.6624 38.3166 36.6958 43.7441 35.6515C43.7441 35.6515 44.4935 36.4122 45.6728 36.8277C34.5716 40.0747 22.2078 37.0834 30.1503 34.4473Z" fill="#3174B9"/>
<path fill-rule="evenodd" clip-rule="evenodd" d="M39.608 25.7361C41.8718 28.3419 39.0147 30.6854 39.0147 30.6854C39.0147 30.6854 44.76 27.7201 42.1212 24.0055C39.6574 20.5429 37.7676 18.8227 47.9973 12.8906C47.9973 12.8906 31.9394 16.8994 39.608 25.7361Z" fill="#CA3132"/>
<path fill-rule="evenodd" clip-rule="evenodd" d="M51.7541 43.3801C51.7541 43.3801 53.0801 44.4735 50.2934 45.319C44.9944 46.924 28.2342 47.408 23.5787 45.3828C21.9064 44.6544 25.044 43.6447 26.0312 43.4315C27.0607 43.2089 27.6482 43.2494 27.6482 43.2494C25.7872 41.9389 15.619 45.8232 22.4842 46.9376C41.2042 49.9729 56.6092 45.5711 51.7541 43.3801ZM32.1349 29.1261C32.1349 29.1261 23.6106 31.1513 29.1167 31.8875C31.4423 32.1984 36.0748 32.1268 40.3934 31.7645C43.9217 31.4684 47.4632 30.835 47.4632 30.835C47.4632 30.835 46.22 31.3684 45.3193 31.9824C36.6616 34.2598 19.9391 33.1991 24.7538 30.8712C28.8245 28.902 32.1349 29.1261 32.1349 29.1261ZM47.4278 37.6733C56.2279 33.1015 52.1591 28.707 49.3184 29.2992C48.6238 29.4444 48.3122 29.5697 48.3122 29.5697C48.3122 29.5697 48.5713 29.1642 49.0639 28.9899C54.6828 27.0153 59.0033 34.8154 47.2523 37.9044C47.2519 37.9044 47.3873 37.7822 47.4278 37.6733Z" fill="#3174B9"/>
<path fill-rule="evenodd" clip-rule="evenodd" d="M42.1217 3.30859C42.1217 3.30859 46.9944 8.18432 37.4989 15.6794C29.884 21.694 35.7628 25.1223 37.4966 29.0409C33.0508 25.0305 29.7898 21.4995 31.9773 18.214C35.1889 13.3912 44.0878 11.0523 42.1217 3.30859Z" fill="#CA3132"/>
<path fill-rule="evenodd" clip-rule="evenodd" d="M33.0005 50.0667C41.4461 50.6067 54.4181 49.7667 54.7258 45.7695C54.7258 45.7695 54.1352 47.2847 47.7451 48.4866C40.5356 49.8437 31.6421 49.6858 26.3691 48.8154C26.3691 48.8154 27.4497 49.7095 33.0005 50.0667Z" fill="#3174B9"/>
<path fill-rule="evenodd" clip-rule="evenodd" d="M54.3352 57.234H54.0784V57.09H54.7713V57.234H54.5145V57.953H54.3352V57.234ZM55.718 57.2698H55.7149L55.4596 57.9526H55.3425L55.0888 57.2698H55.0857V57.9526H54.9153V57.0896H55.1655L55.4005 57.7001L55.6355 57.0896H55.8834V57.9526H55.7184L55.718 57.2698ZM31.616 65.3368C30.8195 66.0271 29.9775 66.4154 29.2215 66.4154C28.1445 66.4154 27.5601 65.7683 27.5601 64.7329C27.5601 63.612 28.1858 62.7918 30.69 62.7918H31.6156L31.616 65.3368ZM33.8144 67.8169V60.1393C33.8144 58.1771 32.6954 56.8822 29.9978 56.8822C28.4239 56.8822 27.0442 57.2709 25.9224 57.7662L26.2454 59.1261C27.129 58.8016 28.2714 58.5008 29.3927 58.5008C30.9468 58.5008 31.6156 59.1261 31.6156 60.4206V61.3914H30.839C27.064 61.3914 25.3606 62.856 25.3606 65.0578C25.3606 66.955 26.4831 68.0336 28.5963 68.0336C29.9546 68.0336 30.9693 67.4729 31.9168 66.6523L32.0892 67.8169H33.8144ZM41.1515 67.8169H38.4104L35.1097 57.0775H37.5042L39.5527 63.6769L40.0088 65.6598C41.0422 62.7918 41.7756 59.8802 42.1425 57.0775H44.4709C43.8475 60.6136 42.7246 64.496 41.1515 67.8169ZM51.6714 65.3368C50.8726 66.0271 50.0306 66.4154 49.2762 66.4154C48.1992 66.4154 47.6155 65.7683 47.6155 64.7329C47.6155 63.612 48.2416 62.7918 50.7442 62.7918H51.6714V65.3368ZM53.8706 67.8169V60.1393C53.8706 58.1771 52.748 56.8822 50.0532 56.8822C48.4778 56.8822 47.0984 57.2709 45.9767 57.7662L46.2996 59.1261C47.1832 58.8016 48.328 58.5008 49.4497 58.5008C51.0014 58.5008 51.671 59.1261 51.671 60.4206V61.3914H50.8944C47.119 61.3914 45.4168 62.856 45.4168 65.0578C45.4168 66.955 46.537 68.0336 48.6505 68.0336C50.01 68.0336 51.0232 67.4729 51.973 66.6523L52.1461 67.8169H53.8706ZM22.9501 69.6417C22.3237 70.5573 21.3105 71.2822 20.2028 71.6911L19.1172 70.4125C19.9611 69.9795 20.6841 69.2803 21.0206 68.6297C21.3105 68.05 21.4315 67.3045 21.4315 65.5201V53.2578H23.768V65.3508C23.768 67.7375 23.5774 68.7021 22.9501 69.6417Z" fill="#CA3132"/>
</g>
<defs>
<clipPath id="clip0_517_4211">
<rect width="75" height="75" fill="white"/>
</clipPath>
</defs>
</svg>
