<svg width="262" height="49" viewBox="0 0 262 49" fill="none" xmlns="http://www.w3.org/2000/svg">
<path d="M110.557 12.4704H112.406V36H110.557V12.4704ZM135.86 12.4704H137.709V36.9076L119.826 16.3696V36H117.977V11.5628L135.86 32.168V12.4704ZM144.327 14.2183V12.4704H154.646V14.2183H144.327ZM144.327 24.1344V22.3865H154.31V24.1344H144.327ZM143.352 12.4704H145.2V36H143.352V12.4704ZM160.107 24.2352C160.107 26.1848 160.522 27.9327 161.351 29.4789C162.202 31.0252 163.356 32.2465 164.813 33.1428C166.292 34.0168 167.973 34.4538 169.855 34.4538C171.737 34.4538 173.407 34.0168 174.864 33.1428C176.343 32.2465 177.497 31.0252 178.326 29.4789C179.155 27.9327 179.569 26.1848 179.569 24.2352C179.569 22.2632 179.155 20.5153 178.326 18.9915C177.497 17.4452 176.343 16.2351 174.864 15.3612C173.407 14.4648 171.737 14.0166 169.855 14.0166C167.973 14.0166 166.292 14.4648 164.813 15.3612C163.356 16.2351 162.202 17.4452 161.351 18.9915C160.522 20.5153 160.107 22.2632 160.107 24.2352ZM158.158 24.2352C158.158 22.5097 158.449 20.9187 159.031 19.4621C159.614 17.9831 160.432 16.7057 161.485 15.6301C162.539 14.5321 163.771 13.6805 165.183 13.0755C166.617 12.4704 168.174 12.1679 169.855 12.1679C171.536 12.1679 173.082 12.4704 174.494 13.0755C175.928 13.6805 177.172 14.5321 178.225 15.6301C179.278 16.7057 180.096 17.9831 180.679 19.4621C181.261 20.9187 181.553 22.5097 181.553 24.2352C181.553 25.9607 181.261 27.563 180.679 29.042C180.096 30.4986 179.278 31.7759 178.225 32.8739C177.172 33.9496 175.928 34.7899 174.494 35.395C173.082 36 171.536 36.3025 169.855 36.3025C168.174 36.3025 166.617 36 165.183 35.395C163.771 34.7899 162.539 33.9496 161.485 32.8739C160.432 31.7759 159.614 30.4986 159.031 29.042C158.449 27.563 158.158 25.9607 158.158 24.2352ZM182.491 14.2183V12.4704H196.709V14.2183H190.524V36H188.676V14.2183H182.491ZM200.984 36V34.2521H212.648V36H200.984ZM200.984 14.2183V12.4704H212.648V14.2183H200.984ZM200.984 23.9663V22.2184H211.976V23.9663H200.984ZM200.009 12.4704H201.858V36H200.009V12.4704ZM218.604 24.2352C218.604 26.2296 219.029 27.9887 219.881 29.5126C220.732 31.0364 221.875 32.2353 223.31 33.1092C224.744 33.9832 226.346 34.4202 228.116 34.4202C229.237 34.4202 230.256 34.2969 231.175 34.0504C232.094 33.8039 232.923 33.4342 233.663 32.9412C234.424 32.4482 235.097 31.8655 235.679 31.1932V33.6807C234.693 34.5546 233.618 35.2157 232.452 35.6639C231.287 36.0896 229.842 36.3025 228.116 36.3025C226.48 36.3025 224.957 36.0112 223.545 35.4286C222.155 34.8235 220.945 33.9832 219.915 32.9075C218.884 31.8319 218.077 30.5546 217.494 29.0756C216.912 27.5966 216.62 25.9831 216.62 24.2352C216.62 22.4873 216.912 20.8738 217.494 19.3948C218.077 17.9158 218.884 16.6385 219.915 15.5629C220.945 14.4872 222.155 13.6581 223.545 13.0755C224.957 12.4704 226.48 12.1679 228.116 12.1679C229.842 12.1679 231.287 12.392 232.452 12.8402C233.618 13.2659 234.693 13.9158 235.679 14.7898V17.2436C235.097 16.5713 234.424 15.9998 233.663 15.5293C232.901 15.0363 232.06 14.6665 231.142 14.42C230.223 14.1735 229.214 14.0503 228.116 14.0503C226.346 14.0503 224.744 14.4872 223.31 15.3612C221.875 16.2127 220.732 17.4004 219.881 18.9242C219.029 20.4481 218.604 22.2184 218.604 24.2352ZM241.951 24.0671V22.3192H257.816V24.0671H241.951ZM256.573 12.4704H258.455V36H256.573V12.4704ZM240.976 12.4704H242.825V36H240.976V12.4704Z" fill="black"/>
<g clip-path="url(#clip0_244_2509)">
<path d="M83.0508 31.7657C83.9699 31.7657 87.289 31.7657 88.3103 31.7657C89.2805 31.7657 90.6082 31.7657 91.4252 31.7657C92.1401 31.7657 93.2513 31.7657 94.0098 31.7657C94.8116 31.7657 95.4726 31.5706 95.9927 31.1806C96.5128 30.7688 96.7728 30.2162 96.7728 29.5228C96.7728 28.9377 96.6211 28.4717 96.3178 28.125C96.0144 27.7566 95.5268 27.4099 94.855 27.0848C94.1832 26.7597 93.2947 26.3913 92.1895 25.9796C91.6477 25.7846 91.0193 25.5137 90.3041 25.1669C89.6107 24.8202 88.9497 24.376 88.3213 23.8342C87.6928 23.2708 87.1727 22.599 86.761 21.8188C86.3492 21.017 86.1433 20.0526 86.1433 18.9258C86.1433 17.5822 86.4901 16.4228 87.1835 15.4476C87.8987 14.4724 88.8522 13.7356 90.0441 13.2372C91.2576 12.7171 92.6012 12.4571 94.0748 12.4571C95.5918 12.4571 97.1629 12.457 98.3006 12.457C99.5442 12.457 100.067 14.3316 100.804 15.0901C101.54 15.8485 102.422 16.2621 102.812 17.0423L100.668 17.0404C99.8506 16.9401 98.2677 17.0423 97.6038 17.0404C97.1443 17.0391 96.3783 17.0443 95.8166 17.0423C95.306 17.0404 94.725 17.0404 94.1398 17.0404C93.3597 17.0404 92.7638 17.2138 92.352 17.5605C91.9403 17.8856 91.7344 18.2973 91.7344 18.7957C91.7344 19.3158 91.9294 19.7709 92.3195 20.161C92.7313 20.5511 93.3055 20.9086 94.0423 21.2337C94.8008 21.5588 95.711 21.9055 96.7728 22.2739C97.5747 22.5773 98.3223 22.9349 99.0158 23.3466C99.7092 23.7367 100.316 24.2134 100.836 24.7769C101.378 25.3403 101.8 25.9904 102.104 26.7272C102.407 27.464 102.559 28.3092 102.559 29.2627C102.559 30.4113 102.321 31.4406 101.844 32.3508C101.389 33.2393 100.76 33.9869 99.9584 34.5937C99.1783 35.2005 98.279 35.6556 97.2604 35.959C96.2636 36.284 95.2342 36.4466 94.1724 36.4466C92.6987 36.4466 91.0167 36.4466 89.638 36.4466C88.2592 36.4466 87.5954 36.4466 86.472 36.4466C85.3486 36.4466 84.072 36.4466 83.0508 36.4466V31.7657Z" fill="#136DFB"/>
<rect x="94.1328" y="12.4453" width="11.3361" height="4.5957" fill="#136DFB"/>
<rect x="83" y="31.7461" width="11.3361" height="4.69783" fill="#136DFB"/>
<path d="M6.77857 36.3953H0.308594L12.7192 12.6328H19.4244L31.5409 36.3953H25.9532L22.6006 31.7487H12.7192L14.4837 27.4549H20.9537L16.7188 18.3382H15.5424L6.77857 36.3953Z" fill="#136DFB"/>
<path d="M83.9556 17.4146V13.4599V12.4453H72.7803C70.9825 12.4453 61.5078 12.6338 61.5078 24.6626C61.5079 34.3098 67.6872 36.4453 72.7803 36.4453H83.9556V31.7385H72.7942C69.7296 31.7385 66.7581 29.2523 66.7581 24.6626C66.7581 19.8591 69.0781 17.4146 72.7803 17.4146H83.9556Z" fill="#136DFB"/>
<path d="M35.2545 17.0955L30.3281 12.6328H51.4246C53.6269 12.9806 58.078 15.0554 58.2635 20.573C58.449 26.0905 53.7815 27.9722 51.4246 28.2233L58.7851 36.2794H52.236L41.5718 23.9924H49.5699C50.5166 23.9924 52.3751 23.3085 52.236 20.573C52.0969 17.8374 49.9756 17.1148 48.9324 17.0955H35.2545Z" fill="#136DFB"/>
<rect x="32.0078" y="27.5273" width="6.37529" height="8.8095" rx="3.18765" fill="#136DFB"/>
</g>
<defs>
<clipPath id="clip0_244_2509">
<rect width="106" height="25" fill="white" transform="translate(0 12.4453)"/>
</clipPath>
</defs>
</svg>
