<svg width="75" height="46" viewBox="0 0 75 46" fill="none" xmlns="http://www.w3.org/2000/svg">
<g clip-path="url(#clip0_517_4110)">
<path d="M37.0705 45.6885C36.823 45.6885 36.5772 45.6239 36.3601 45.4997L34.099 44.1681C33.7612 43.9802 33.926 43.9138 34.0374 43.8755C34.4877 43.7186 34.5791 43.6832 35.0598 43.4117C35.1103 43.383 35.1764 43.3932 35.2281 43.4235L36.9652 44.4489C37.028 44.4826 37.117 44.4826 37.1751 44.4489L43.9483 40.56C44.011 40.5246 44.0517 40.4521 44.0517 40.3779V32.6035C44.0517 32.526 44.011 32.4568 43.9469 32.418L37.1765 28.5325C37.1137 28.4954 37.0307 28.4954 36.9679 28.5325L30.1989 32.418C30.1332 32.4551 30.0915 32.5276 30.0915 32.6018V40.3762C30.0915 40.4504 30.1322 40.5212 30.1966 40.5566L32.0514 41.6224C33.0585 42.1233 33.6739 41.5331 33.6739 40.9394V33.2663C33.6739 33.1567 33.7604 33.0724 33.8706 33.0724H34.7285C34.8353 33.0724 34.9234 33.1567 34.9234 33.2663V40.9428C34.9234 42.2785 34.191 43.0458 32.9178 43.0458C32.5261 43.0458 32.2176 43.0458 31.3563 42.6242L29.5795 41.6056C29.1404 41.3526 28.8691 40.8804 28.8691 40.3762V32.6018C28.8691 32.0959 29.1404 31.6237 29.5795 31.3741L36.3595 27.4836C36.7884 27.2424 37.3581 27.2424 37.7836 27.4836L44.5551 31.3758C44.9925 31.6271 45.2654 32.0976 45.2654 32.6035V40.3779C45.2654 40.8821 44.9925 41.3526 44.5551 41.6056L37.7836 45.4961C37.5666 45.6209 37.3208 45.685 37.0698 45.685" fill="#689F63"/>
<path d="M39.1631 40.3311C36.1995 40.3311 35.5781 38.9779 35.5781 37.843C35.5781 37.7351 35.6656 37.649 35.7743 37.649H36.6491C36.7458 37.649 36.8271 37.719 36.8424 37.814C36.9746 38.7007 37.368 39.1479 39.16 39.1479C40.5876 39.1479 41.1945 38.8272 41.1945 38.0742C41.1945 37.6408 41.0216 37.3187 38.804 37.1028C36.9492 36.9207 35.8031 36.5143 35.8031 35.0387C35.8031 33.6794 36.956 32.8699 38.8871 32.8699C41.0555 32.8699 42.1304 33.6187 42.266 35.2275C42.2711 35.2832 42.2507 35.3371 42.2134 35.3776C42.1762 35.4164 42.1236 35.44 42.0693 35.44H41.1894C41.0979 35.44 41.0182 35.3759 40.9995 35.2882C40.7876 34.3557 40.2756 34.0572 38.8837 34.0572C37.3256 34.0572 37.1442 34.5968 37.1442 35.0016C37.1442 35.4923 37.3578 35.6356 39.4601 35.9122C41.5421 36.1871 42.5305 36.575 42.5305 38.0303C42.5305 39.4975 41.2996 40.339 39.1532 40.339M47.4031 32.0942H47.6303C47.8168 32.0942 47.8524 31.9643 47.8524 31.8884C47.8524 31.6894 47.7151 31.6895 47.6388 31.6895H47.4048L47.4031 32.0942ZM47.1267 31.4567H47.6303C47.8032 31.4567 48.1423 31.4567 48.1423 31.8412C48.1423 32.1094 47.9694 32.165 47.8659 32.1987C48.0677 32.2122 48.0813 32.3438 48.1084 32.5293C48.1219 32.6456 48.144 32.8463 48.1847 32.9138H47.8744C47.8659 32.8463 47.8185 32.4753 47.8185 32.4551C47.7981 32.3724 47.7693 32.332 47.6659 32.332H47.4099V32.9155H47.1267V31.4567ZM46.5215 32.1819C46.5215 32.7856 47.0115 33.2747 47.6133 33.2747C48.2203 33.2747 48.7103 32.7755 48.7103 32.1819C48.7103 31.5765 48.2135 31.0958 47.6116 31.0958C47.0182 31.0958 46.5198 31.5697 46.5198 32.1802M48.9205 32.1853C48.9205 32.9003 48.3322 33.4838 47.615 33.4838C46.9029 33.4838 46.3096 32.907 46.3096 32.1853C46.3096 31.45 46.9165 30.8867 47.615 30.8867C48.3186 30.8867 48.9188 31.4517 48.9188 32.1853" fill="#689F63"/>
<path fill-rule="evenodd" clip-rule="evenodd" d="M16.0955 15.2704C16.0955 14.9601 15.9311 14.6751 15.6619 14.5208L8.48078 10.411C8.35955 10.3402 8.22375 10.3031 8.08609 10.298H8.01183C7.87416 10.3031 7.73836 10.3402 7.6151 10.411L0.434364 14.5208C0.166828 14.6759 0 14.9609 0 15.2712L0.0157673 26.3408C0.0157673 26.4943 0.0954515 26.6376 0.231084 26.7135C0.363326 26.7944 0.529476 26.7944 0.661718 26.7135L4.93076 24.2817C5.20033 24.1222 5.36478 23.8402 5.36478 23.5329V18.3616C5.36478 18.0529 5.52924 17.7679 5.79796 17.6145L7.61544 16.5733C7.75039 16.4957 7.89857 16.4573 8.04946 16.4573C8.19798 16.4573 8.34955 16.4954 8.48078 16.5731L10.2974 17.614C10.5663 17.7674 10.7314 18.0524 10.7314 18.3611V23.5321C10.7314 23.839 10.8981 24.1223 11.1663 24.2808L15.4326 26.711C15.5666 26.7902 15.7332 26.7902 15.8667 26.711C15.9982 26.6351 16.0816 26.4917 16.0816 26.3383L16.0955 15.2704ZM49.9813 21.0338C49.9813 21.1109 49.9401 21.1822 49.8728 21.2204L47.4064 22.6346C47.3394 22.6729 47.2566 22.6729 47.1898 22.6346L44.723 21.2204C44.6552 21.1821 44.6145 21.1107 44.6145 21.0338V18.2014C44.6145 18.1241 44.6552 18.0529 44.7213 18.0142L47.1865 16.5976C47.2543 16.5588 47.3374 16.5588 47.4052 16.5976L49.872 18.0142C49.9398 18.0529 49.9805 18.1241 49.9805 18.2014L49.9813 21.0338ZM50.6476 0.0546031C50.513 -0.0199361 50.3492 -0.0179124 50.2163 0.0591564C50.0841 0.136731 50.0024 0.278389 50.0024 0.431852V11.3935C50.0024 11.5014 49.9447 11.6009 49.8508 11.6549C49.7575 11.7089 49.6414 11.7089 49.5473 11.6549L47.7485 10.6243C47.4806 10.4702 47.1507 10.4702 46.8818 10.6243L39.6983 14.7481C39.43 14.9016 39.2643 15.1866 39.2643 15.4935V23.7434C39.2643 24.052 39.43 24.3353 39.6983 24.4905L46.8818 28.6171C47.15 28.7706 47.4803 28.7706 47.7493 28.6171L54.9328 24.4888C55.2007 24.3336 55.3668 24.0503 55.3668 23.7417V3.18103C55.3668 2.86804 55.1956 2.58017 54.9209 2.42721L50.6476 0.0546031ZM74.5687 18.1268C74.8355 17.9727 74.9998 17.688 74.9998 17.3811V15.3817C74.9998 15.0741 74.8354 14.7903 74.568 14.6354L67.4303 10.5139C67.1608 10.3587 66.8301 10.3587 66.5606 10.5139L59.3788 14.6371C59.1093 14.7923 58.9448 15.0756 58.9448 15.3842V23.6307C58.9448 23.941 59.1126 24.2277 59.3822 24.3812L66.5182 28.4269C66.781 28.577 67.1031 28.5787 67.3693 28.4319L71.6858 26.0457C71.8214 25.9698 71.9079 25.8264 71.9079 25.6713C71.9079 25.5161 71.8248 25.3711 71.6892 25.2952L64.4634 21.1703C64.3277 21.0944 64.2447 20.951 64.2447 20.7976V18.2106C64.2447 18.0562 64.326 17.9138 64.4617 17.8369L66.7098 16.5468C66.8437 16.4692 67.0082 16.4692 67.1421 16.5468L69.3919 17.8369C69.5258 17.9128 69.6089 18.0562 69.6089 18.2096V20.2434C69.6089 20.3969 69.692 20.5402 69.8259 20.6178C69.9599 20.6937 70.126 20.6937 70.26 20.6161L74.5687 18.1268Z" fill="#333333"/>
<path fill-rule="evenodd" clip-rule="evenodd" d="M66.89 17.7392C66.9409 17.7093 67.0046 17.7093 67.0562 17.7392L68.4345 18.5301C68.4861 18.5598 68.5176 18.6144 68.5176 18.6735V20.257C68.5176 20.316 68.4861 20.3707 68.4345 20.4003L67.0562 21.1913C67.0046 21.2211 66.9409 21.2211 66.89 21.1913L65.5125 20.4003C65.4599 20.3707 65.4277 20.316 65.4277 20.257V18.6735C65.4277 18.6144 65.4583 18.5598 65.5108 18.5301L66.89 17.7392Z" fill="#689F63"/>
<mask id="mask0_517_4110" style="mask-type:luminance" maskUnits="userSpaceOnUse" x="19" y="10" width="17" height="19">
<path d="M27.2502 10.5541L20.1074 14.655C19.8399 14.8084 19.6758 15.0917 19.6758 15.398V23.6054C19.6758 23.9118 19.8399 24.195 20.1074 24.3484L27.2507 28.4525C27.5177 28.6054 27.847 28.6054 28.1137 28.4525L35.2557 24.3484C35.5219 24.195 35.6864 23.9117 35.6864 23.6054V15.398C35.6864 15.0917 35.5219 14.8084 35.2541 14.655L28.113 10.5541C27.979 10.4777 27.8299 10.4395 27.6807 10.4395C27.5315 10.4395 27.3823 10.4777 27.2483 10.5541" fill="white"/>
</mask>
<g mask="url(#mask0_517_4110)">
<path d="M42.904 13.9597L22.777 4.14648L12.457 25.0873L32.5836 34.901L42.904 13.9597Z" fill="url(#paint0_linear_517_4110)"/>
</g>
<mask id="mask1_517_4110" style="mask-type:luminance" maskUnits="userSpaceOnUse" x="19" y="10" width="17" height="19">
<path d="M19.8535 24.1237C19.9218 24.2119 20.0073 24.2883 20.1078 24.3456L26.235 27.866L27.2557 28.4495C27.4083 28.5372 27.5822 28.5743 27.7531 28.5616C27.8101 28.5571 27.867 28.5465 27.9226 28.5308L35.456 14.8102C35.3984 14.7478 35.3309 14.6955 35.2553 14.6517L30.5783 11.9652L28.1061 10.5503C28.0359 10.5098 27.9598 10.4812 27.8823 10.4609L19.8535 24.1237Z" fill="white"/>
</mask>
<g mask="url(#mask1_517_4110)">
<path d="M11.1523 16.8591L25.3641 35.9918L44.1594 22.1792L29.9468 3.04688L11.1523 16.8591Z" fill="url(#paint1_linear_517_4110)"/>
</g>
<mask id="mask2_517_4110" style="mask-type:luminance" maskUnits="userSpaceOnUse" x="20" y="10" width="16" height="19">
<path d="M27.5963 10.4446C27.4765 10.4564 27.3593 10.4935 27.2513 10.5546L20.1289 14.6436L27.8091 28.5581C27.9159 28.543 28.021 28.5075 28.116 28.4529L35.2587 24.3489C35.4791 24.2217 35.63 24.0065 35.6758 23.7627L27.8464 10.4586C27.7888 10.4473 27.7311 10.4414 27.6718 10.4414C27.648 10.4414 27.6243 10.4426 27.6006 10.4448" fill="white"/>
</mask>
<g mask="url(#mask2_517_4110)">
<path d="M20.1289 10.4414V28.5585H35.6729V10.4414H20.1289Z" fill="url(#paint2_linear_517_4110)"/>
</g>
</g>
<defs>
<linearGradient id="paint0_linear_517_4110" x1="32.8345" y1="9.03765" x2="22.6035" y2="30.0201" gradientUnits="userSpaceOnUse">
<stop offset="0.3" stop-color="#3E863D"/>
<stop offset="0.5" stop-color="#55934F"/>
<stop offset="0.8" stop-color="#5AAD45"/>
</linearGradient>
<linearGradient id="paint1_linear_517_4110" x1="18.3434" y1="26.5351" x2="37.0686" y2="12.6255" gradientUnits="userSpaceOnUse">
<stop offset="0.57" stop-color="#3E863D"/>
<stop offset="0.72" stop-color="#619857"/>
<stop offset="1" stop-color="#76AC64"/>
</linearGradient>
<linearGradient id="paint2_linear_517_4110" x1="20.1342" y1="19.5004" x2="35.6759" y2="19.5004" gradientUnits="userSpaceOnUse">
<stop offset="0.16" stop-color="#6BBF47"/>
<stop offset="0.38" stop-color="#79B461"/>
<stop offset="0.47" stop-color="#75AC64"/>
<stop offset="0.7" stop-color="#659E5A"/>
<stop offset="0.9" stop-color="#3E863D"/>
</linearGradient>
<clipPath id="clip0_517_4110">
<rect width="75" height="45.6897" fill="white"/>
</clipPath>
</defs>
</svg>
