<svg width="60" height="36" viewBox="0 0 60 36" fill="none" xmlns="http://www.w3.org/2000/svg">
<g clip-path="url(#clip0_517_4089)">
<path d="M30.1627 35.5514C29.968 35.5514 29.7746 35.5006 29.6039 35.4028L27.8251 34.3553C27.5594 34.2075 27.689 34.1552 27.7767 34.1251C28.1309 34.0017 28.2028 33.9739 28.5809 33.7603C28.6206 33.7377 28.6727 33.7457 28.7133 33.7696L30.0799 34.5762C30.1292 34.6027 30.1992 34.6027 30.245 34.5762L35.5732 31.5169C35.6225 31.4891 35.6546 31.432 35.6546 31.3737V25.2579C35.6546 25.1968 35.6225 25.1424 35.5721 25.1119L30.246 22.0553C30.1967 22.0262 30.1313 22.0262 30.082 22.0553L24.757 25.1119C24.7054 25.1411 24.6726 25.1982 24.6726 25.2565V31.3723C24.6726 31.4307 24.7046 31.4864 24.7552 31.5143L26.2143 32.3527C27.0066 32.7467 27.4907 32.2824 27.4907 31.8154V25.7792C27.4907 25.693 27.5587 25.6267 27.6454 25.6267H28.3203C28.4043 25.6267 28.4737 25.693 28.4737 25.7792V31.8181C28.4737 32.8688 27.8975 33.4724 26.8959 33.4724C26.5878 33.4724 26.345 33.4724 25.6675 33.1407L24.2698 32.3395C23.9243 32.1405 23.7109 31.769 23.7109 31.3723V25.2565C23.7109 24.8585 23.9243 24.4871 24.2698 24.2907L29.6033 21.2302C29.9408 21.0405 30.3889 21.0405 30.7236 21.2302L36.0505 24.2921C36.3946 24.4897 36.6094 24.8599 36.6094 25.2579V31.3737C36.6094 31.7703 36.3946 32.1405 36.0505 32.3395L30.7236 35.4C30.5529 35.4982 30.3595 35.5486 30.1622 35.5486" fill="white"/>
<path d="M31.8065 31.3378C29.4751 31.3378 28.9863 30.2733 28.9863 29.3805C28.9863 29.2956 29.0551 29.2279 29.1406 29.2279H29.8288C29.9049 29.2279 29.9689 29.283 29.9809 29.3576C30.0849 30.0552 30.3943 30.407 31.8041 30.407C32.9271 30.407 33.4045 30.1547 33.4045 29.5623C33.4045 29.2214 33.2685 28.968 31.524 28.7982C30.0649 28.6549 29.1633 28.3352 29.1633 27.1744C29.1633 26.1051 30.0702 25.4683 31.5894 25.4683C33.2952 25.4683 34.1408 26.0574 34.2475 27.323C34.2515 27.3668 34.2355 27.4092 34.2061 27.441C34.1768 27.4716 34.1354 27.4901 34.0927 27.4901H33.4005C33.3285 27.4901 33.2658 27.4397 33.2512 27.3707C33.0845 26.6371 32.6817 26.4023 31.5867 26.4023C30.361 26.4023 30.2183 26.8268 30.2183 27.1452C30.2183 27.5313 30.3863 27.644 32.0402 27.8616C33.678 28.0778 34.4555 28.383 34.4555 29.5279C34.4555 30.682 33.4872 31.344 31.7987 31.344M38.2886 24.8581H38.4674C38.6141 24.8581 38.6421 24.7559 38.6421 24.6962C38.6421 24.5397 38.534 24.5397 38.474 24.5397H38.29L38.2886 24.8581ZM38.0712 24.3566H38.4674C38.6034 24.3566 38.8701 24.3566 38.8701 24.6591C38.8701 24.87 38.7341 24.9138 38.6527 24.9403C38.8115 24.9509 38.8221 25.0544 38.8435 25.2004C38.8541 25.2919 38.8715 25.4498 38.9035 25.5028H38.6594C38.6527 25.4498 38.6154 25.1579 38.6154 25.142C38.5994 25.077 38.5767 25.0451 38.4954 25.0451H38.294V25.5042H38.0712V24.3566ZM37.5951 24.9271C37.5951 25.402 37.9806 25.7867 38.454 25.7867C38.9315 25.7867 39.3169 25.394 39.3169 24.9271C39.3169 24.4508 38.9262 24.0727 38.4527 24.0727C37.9859 24.0727 37.5938 24.4455 37.5938 24.9257M39.4823 24.9297C39.4823 25.4922 39.0195 25.9512 38.4554 25.9512C37.8952 25.9512 37.4284 25.4975 37.4284 24.9297C37.4284 24.3513 37.9059 23.9082 38.4554 23.9082C39.0088 23.9082 39.481 24.3526 39.481 24.9297" fill="white"/>
<path fill-rule="evenodd" clip-rule="evenodd" d="M13.6618 11.6221C13.6618 11.378 13.5325 11.1538 13.3207 11.0324L7.67154 7.79936C7.57618 7.74364 7.46935 7.71445 7.36105 7.71047H7.30264C7.19434 7.71445 7.08751 7.74364 6.99055 7.79936L1.3417 11.0324C1.13124 11.1544 1 11.3786 1 11.6227L1.0124 20.3308C1.0124 20.4515 1.07509 20.5643 1.18179 20.624C1.28582 20.6877 1.41652 20.6877 1.52055 20.624L4.87886 18.711C5.09093 18.5855 5.2203 18.3637 5.2203 18.1219V14.0538C5.2203 13.811 5.34967 13.5868 5.56106 13.4661L6.99081 12.647C7.09698 12.586 7.21354 12.5558 7.33224 12.5558C7.44908 12.5558 7.56831 12.5857 7.67154 12.6469L9.10063 13.4657C9.31215 13.5864 9.44206 13.8106 9.44206 14.0534V18.1213C9.44206 18.3627 9.57316 18.5856 9.78416 18.7103L13.1403 20.622C13.2457 20.6844 13.3768 20.6844 13.4818 20.622C13.5853 20.5623 13.6509 20.4495 13.6509 20.3288L13.6618 11.6221ZM40.3187 16.156C40.3187 16.2166 40.2862 16.2727 40.2333 16.3027L38.293 17.4152C38.2403 17.4454 38.1752 17.4454 38.1227 17.4152L36.1821 16.3027C36.1288 16.2726 36.0968 16.2165 36.0968 16.156V13.9278C36.0968 13.867 36.1288 13.811 36.1808 13.7805L38.12 12.6661C38.1734 12.6356 38.2387 12.6356 38.2921 12.6661L40.2326 13.7805C40.286 13.811 40.318 13.867 40.318 13.9278L40.3187 16.156ZM40.8428 -0.347671C40.7369 -0.406308 40.6081 -0.404716 40.5035 -0.344089C40.3995 -0.283063 40.3352 -0.171625 40.3352 -0.0509012V8.57226C40.3352 8.65716 40.2898 8.73544 40.216 8.77789C40.1426 8.82034 40.0512 8.82034 39.9772 8.77789L38.5621 7.96718C38.3514 7.84592 38.0919 7.84592 37.8803 7.96718L32.2294 11.2112C32.0182 11.3319 31.8879 11.5561 31.8879 11.7976V18.2875C31.8879 18.5303 32.0182 18.7532 32.2294 18.8752L37.8803 22.1215C38.0913 22.2422 38.3512 22.2422 38.5628 22.1215L44.2138 18.8739C44.4245 18.7518 44.5552 18.529 44.5552 18.2862V2.11179C44.5552 1.86556 44.4205 1.63911 44.2045 1.51878L40.8428 -0.347671ZM59.6607 13.8691C59.8706 13.7479 59.9999 13.5239 59.9999 13.2825V11.7096C59.9999 11.4677 59.8705 11.2444 59.6602 11.1226L54.0452 7.88028C53.8331 7.75823 53.573 7.75823 53.361 7.88028L47.7113 11.1239C47.4993 11.246 47.3699 11.4688 47.3699 11.7116V18.1989C47.3699 18.443 47.5019 18.6685 47.714 18.7892L53.3276 21.9719C53.5344 22.0899 53.7878 22.0913 53.9972 21.9758L57.3928 20.0986C57.4995 20.0389 57.5675 19.9262 57.5675 19.8041C57.5675 19.6821 57.5022 19.568 57.3955 19.5083L51.7112 16.2633C51.6045 16.2036 51.5391 16.0909 51.5391 15.9701V13.9351C51.5391 13.8135 51.6031 13.7016 51.7098 13.6411L53.4784 12.6262C53.5837 12.5652 53.7131 12.5652 53.8185 12.6262L55.5883 13.6411C55.6937 13.7008 55.759 13.8135 55.759 13.9343V15.5342C55.759 15.6549 55.8244 15.7677 55.9297 15.8287C56.0351 15.8884 56.1658 15.8884 56.2712 15.8274L59.6607 13.8691Z" fill="white"/>
<path fill-rule="evenodd" clip-rule="evenodd" d="M53.621 13.5645C53.661 13.541 53.7112 13.541 53.7517 13.5645L54.8361 14.1867C54.8766 14.21 54.9014 14.253 54.9014 14.2994V15.5452C54.9014 15.5916 54.8766 15.6346 54.8361 15.6579L53.7517 16.2801C53.7112 16.3036 53.661 16.3036 53.621 16.2801L52.5374 15.6579C52.496 15.6346 52.4707 15.5916 52.4707 15.5452V14.2994C52.4707 14.253 52.4947 14.21 52.5361 14.1867L53.621 13.5645Z" fill="white"/>
<mask id="mask0_517_4089" style="mask-type:luminance" maskUnits="userSpaceOnUse" x="16" y="7" width="14" height="16">
<path d="M22.4371 7.91248L16.8181 11.1385C16.6076 11.2592 16.4785 11.4821 16.4785 11.723V18.1795C16.4785 18.4205 16.6076 18.6433 16.8181 18.764L22.4375 21.9925C22.6475 22.1128 22.9065 22.1128 23.1163 21.9925L28.7348 18.764C28.9441 18.6433 29.0735 18.4204 29.0735 18.1795V11.723C29.0735 11.4821 28.9441 11.2592 28.7334 11.1385L23.1158 7.91248C23.0104 7.85238 22.8931 7.82227 22.7757 7.82227C22.6583 7.82227 22.5409 7.85238 22.4356 7.91248" fill="white"/>
</mask>
<g mask="url(#mask0_517_4089)">
<path d="M34.7505 10.5928L18.9172 2.87305L10.7988 19.3465L26.6317 27.0666L34.7505 10.5928Z" fill="white"/>
</g>
<mask id="mask1_517_4089" style="mask-type:luminance" maskUnits="userSpaceOnUse" x="16" y="7" width="13" height="16">
<path d="M16.6172 18.5879C16.6709 18.6573 16.7382 18.7174 16.8172 18.7625L21.6373 21.5318L22.4402 21.9908C22.5603 22.0598 22.6971 22.089 22.8315 22.0791C22.8763 22.0755 22.9212 22.0671 22.9649 22.0548L28.8912 11.2612C28.8458 11.2122 28.7927 11.171 28.7333 11.1365L25.054 9.02321L23.1092 7.91016C23.054 7.87832 22.9941 7.85576 22.9332 7.83984L16.6172 18.5879Z" fill="white"/>
</mask>
<g mask="url(#mask1_517_4089)">
<path d="M9.77148 12.8734L20.9514 27.9245L35.7371 17.0585L24.5565 2.00781L9.77148 12.8734Z" fill="white"/>
</g>
<mask id="mask2_517_4089" style="mask-type:luminance" maskUnits="userSpaceOnUse" x="16" y="7" width="14" height="16">
<path d="M22.7103 7.82674C22.616 7.83603 22.5239 7.86521 22.4389 7.91323L16.8359 11.1299L22.8777 22.076C22.9617 22.0641 23.0444 22.0362 23.1191 21.9933L28.7381 18.7648C28.9115 18.6647 29.0302 18.4954 29.0662 18.3036L22.907 7.83775C22.8617 7.82886 22.8163 7.82422 22.7697 7.82422C22.751 7.82422 22.7323 7.82515 22.7137 7.82687" fill="white"/>
</mask>
<g mask="url(#mask2_517_4089)">
<path d="M16.8359 7.82422V22.0763H29.0639V7.82422H16.8359Z" fill="white"/>
</g>
</g>
<defs>
<clipPath id="clip0_517_4089">
<rect width="60" height="36" fill="white"/>
</clipPath>
</defs>
</svg>
