<svg width="75" height="75" viewBox="0 0 75 75" fill="none" xmlns="http://www.w3.org/2000/svg">
<path fill-rule="evenodd" clip-rule="evenodd" d="M30.5072 4.6875C25.3577 4.6875 21.1834 8.72937 21.1834 13.7153V19.9653H37.3207V21.7014H14.0113C8.86188 21.7014 4.6875 25.7433 4.6875 30.7291V44.2709C4.6875 49.2567 8.86188 53.2985 14.0113 53.2985H19.3904V45.6598C19.3904 40.6739 23.5648 36.6319 28.7142 36.6319H45.9272C50.2845 36.6319 53.8165 33.2119 53.8165 28.9931V13.7153C53.8165 8.72937 49.6423 4.6875 44.4928 4.6875H30.5072ZM28.3556 15.7986C30.138 15.7986 31.583 14.3995 31.583 12.6736C31.583 10.9477 30.138 9.5486 28.3556 9.5486C26.573 9.5486 25.128 10.9477 25.128 12.6736C25.128 14.3995 26.573 15.7986 28.3556 15.7986Z" fill="url(#paint0_linear_517_4134)"/>
<path fill-rule="evenodd" clip-rule="evenodd" d="M44.4929 70.3122C49.6424 70.3122 53.8168 66.2704 53.8168 61.2846V55.0345H37.6794V53.2985H60.9889C66.1384 53.2985 70.3126 49.2565 70.3126 44.2706V30.7289C70.3126 25.743 66.1384 21.7012 60.9889 21.7012H55.6098V29.34C55.6098 34.3261 51.4353 38.3679 46.2861 38.3679H29.0729C24.7156 38.3679 21.1836 41.7879 21.1836 46.0066V61.2846C21.1836 66.2704 25.3581 70.3122 30.5073 70.3122H44.4929ZM46.6447 59.2012C44.8621 59.2012 43.4171 60.6002 43.4171 62.3261C43.4171 64.0521 44.8621 65.4511 46.6447 65.4511C48.4271 65.4511 49.8721 64.0521 49.8721 62.3261C49.8721 60.6002 48.4271 59.2012 46.6447 59.2012Z" fill="url(#paint1_linear_517_4134)"/>
<defs>
<linearGradient id="paint0_linear_517_4134" x1="29.2521" y1="4.6875" x2="29.2521" y2="53.2985" gradientUnits="userSpaceOnUse">
<stop stop-color="#327EBD"/>
<stop offset="1" stop-color="#1565A7"/>
</linearGradient>
<linearGradient id="paint1_linear_517_4134" x1="45.7482" y1="21.7012" x2="45.7482" y2="70.3122" gradientUnits="userSpaceOnUse">
<stop stop-color="#FFDA4B"/>
<stop offset="1" stop-color="#F9C600"/>
</linearGradient>
</defs>
</svg>
