<svg width="1920" height="1901" viewBox="0 0 1920 1901" fill="none" xmlns="http://www.w3.org/2000/svg">
<path d="M-54.5 147.5C-10.3333 108.5 96.8 53.8999 172 147.5C247.2 241.1 350.333 152.167 392.5 96.0002C458.833 14 625.3 -90.5003 760.5 147.5C895.7 385.5 960.833 382.333 976.5 351C1008.83 271.167 1122.4 146.1 1318 284.5C1562.5 457.5 1686.5 569.5 1932.5 284.5C2178.5 -0.5 2591.5 639 1864.5 712.5C1137.5 786 1300.11 305.027 706.5 795.5C436 1019 -18.5 520 172 1305.5C362.5 2091 466.5 1218.5 921 1294.5C1375.5 1370.5 1846.5 1242.5 1932.5 1900.5" stroke="#EAEAEA"/>
</svg>
