<svg width="14" height="14" viewBox="0 0 14 14" fill="none" xmlns="http://www.w3.org/2000/svg">
<path d="M7.68441 0.332031C8.43441 0.334031 8.81508 0.338031 9.14374 0.347365L9.27308 0.352031C9.42241 0.357365 9.56974 0.364031 9.74774 0.372031C10.4571 0.405365 10.9411 0.517365 11.3657 0.682031C11.8057 0.851365 12.1764 1.0807 12.5471 1.4507C12.8862 1.78385 13.1485 2.18701 13.3157 2.63203C13.4804 3.0567 13.5924 3.5407 13.6257 4.2507C13.6337 4.42803 13.6404 4.57536 13.6457 4.72536L13.6497 4.8547C13.6597 5.1827 13.6637 5.56336 13.6651 6.31336L13.6657 6.8107V7.68403C13.6674 8.1703 13.6623 8.65657 13.6504 9.1427L13.6464 9.27203C13.6411 9.42203 13.6344 9.56936 13.6264 9.7467C13.5931 10.4567 13.4797 10.94 13.3157 11.3654C13.1485 11.8104 12.8862 12.2135 12.5471 12.5467C12.2139 12.8858 11.8108 13.1482 11.3657 13.3154C10.9411 13.48 10.4571 13.592 9.74774 13.6254L9.27308 13.6454L9.14374 13.6494C8.81508 13.6587 8.43441 13.6634 7.68441 13.6647L7.18708 13.6654H6.31441C5.82792 13.6671 5.34143 13.662 4.85508 13.65L4.72574 13.646C4.56748 13.64 4.40926 13.6331 4.25108 13.6254C3.54174 13.592 3.05774 13.48 2.63241 13.3154C2.18763 13.1481 1.78471 12.8857 1.45174 12.5467C1.11237 12.2136 0.849816 11.8104 0.682411 11.3654C0.517744 10.9407 0.405744 10.4567 0.37241 9.7467L0.35241 9.27203L0.349077 9.1427C0.336788 8.65658 0.331232 8.17031 0.33241 7.68403V6.31336C0.330565 5.8271 0.335455 5.34083 0.347077 4.8547L0.351744 4.72536C0.357077 4.57536 0.363744 4.42803 0.371744 4.2507C0.405077 3.5407 0.517077 3.05736 0.681744 2.63203C0.84954 2.18683 1.11256 1.78366 1.45241 1.4507C1.78518 1.11173 2.18787 0.849414 2.63241 0.682031C3.05774 0.517365 3.54108 0.405365 4.25108 0.372031C4.42841 0.364031 4.57641 0.357365 4.72574 0.352031L4.85508 0.348031C5.34121 0.336186 5.82747 0.331075 6.31374 0.332698L7.68441 0.332031ZM6.99908 3.66536C6.11502 3.66536 5.26718 4.01655 4.64205 4.64168C4.01693 5.2668 3.66574 6.11464 3.66574 6.9987C3.66574 7.88275 4.01693 8.7306 4.64205 9.35572C5.26718 9.98084 6.11502 10.332 6.99908 10.332C7.88313 10.332 8.73098 9.98084 9.3561 9.35572C9.98122 8.7306 10.3324 7.88275 10.3324 6.9987C10.3324 6.11464 9.98122 5.2668 9.3561 4.64168C8.73098 4.01655 7.88313 3.66536 6.99908 3.66536ZM6.99908 4.9987C7.26172 4.99865 7.5218 5.05034 7.76447 5.15081C8.00714 5.25128 8.22764 5.39856 8.41339 5.58425C8.59914 5.76994 8.74649 5.99039 8.84704 6.23302C8.94759 6.47566 8.99937 6.73572 8.99941 6.99836C8.99945 7.26101 8.94777 7.52109 8.8473 7.76376C8.74683 8.00643 8.59955 8.22693 8.41386 8.41268C8.22817 8.59842 8.00772 8.74578 7.76509 8.84633C7.52245 8.94688 7.26239 8.99865 6.99974 8.9987C6.46931 8.9987 5.9606 8.78798 5.58553 8.41291C5.21046 8.03784 4.99974 7.52913 4.99974 6.9987C4.99974 6.46827 5.21046 5.95956 5.58553 5.58448C5.9606 5.20941 6.46931 4.9987 6.99974 4.9987M10.4997 2.66536C10.2787 2.66536 10.0668 2.75316 9.91049 2.90944C9.75421 3.06572 9.66641 3.27768 9.66641 3.4987C9.66641 3.71971 9.75421 3.93167 9.91049 4.08795C10.0668 4.24423 10.2787 4.33203 10.4997 4.33203C10.7208 4.33203 10.9327 4.24423 11.089 4.08795C11.2453 3.93167 11.3331 3.71971 11.3331 3.4987C11.3331 3.27768 11.2453 3.06572 11.089 2.90944C10.9327 2.75316 10.7208 2.66536 10.4997 2.66536Z" fill="black"/>
</svg>
