<svg width="14" height="14" viewBox="0 0 14 14" fill="none" xmlns="http://www.w3.org/2000/svg">
<path d="M3.33843 4.54688H0.58273C0.460428 4.54688 0.361328 4.64602 0.361328 4.76828V13.6212C0.361328 13.7435 0.460428 13.8426 0.58273 13.8426H3.33843C3.46073 13.8426 3.55983 13.7435 3.55983 13.6212V4.76828C3.55983 4.64602 3.46073 4.54688 3.33843 4.54688Z" fill="#262626"/>
<path d="M1.961 0.144531C0.958312 0.144531 0.142578 0.959379 0.142578 1.96096C0.142578 2.96298 0.958312 3.77814 1.961 3.77814C2.96289 3.77814 3.77795 2.96293 3.77795 1.96096C3.778 0.959379 2.96289 0.144531 1.961 0.144531Z" fill="#262626"/>
<path d="M10.3468 4.32422C9.24004 4.32422 8.42187 4.80001 7.92562 5.34063V4.76565C7.92562 4.64339 7.82652 4.54425 7.70422 4.54425H5.06515C4.94285 4.54425 4.84375 4.64339 4.84375 4.76565V13.6185C4.84375 13.7408 4.94285 13.8399 5.06515 13.8399H7.81483C7.93713 13.8399 8.03623 13.7408 8.03623 13.6185V9.23841C8.03623 7.76241 8.43715 7.18739 9.46605 7.18739C10.5866 7.18739 10.6757 8.10922 10.6757 9.31435V13.6186C10.6757 13.7409 10.7748 13.84 10.8971 13.84H13.6478C13.7701 13.84 13.8692 13.7409 13.8692 13.6186V8.76262C13.8692 6.56786 13.4507 4.32422 10.3468 4.32422Z" fill="#262626"/>
</svg>
